<?xml version="1.0" encoding="UTF-8"?>
<svg version="1.1" xmlns="http://www.w3.org/2000/svg" width="1024" height="1024">
<path d="M0 0 C3.74674092 1.95482135 4.762394 3.30022844 6.12159729 7.3032074 C7.50556471 13.35116967 7.23730204 19.47894953 7.17944336 25.64868164 C7.17395959 27.01779349 7.16941271 28.38690936 7.16572571 29.75602722 C7.15605803 32.69051469 7.14027173 35.62488133 7.11976433 38.55931282 C7.0877991 43.20354086 7.07242033 47.84773487 7.05970764 52.49205017 C7.02571299 64.0237635 6.972974 75.55538151 6.9105835 87.0869751 C6.86208075 96.05868405 6.8200186 105.03030816 6.79907519 114.0021295 C6.78758152 118.61499031 6.76222401 123.22749871 6.72632778 127.84023106 C6.70708245 130.71295522 6.70044906 133.58560858 6.69726372 136.45839119 C6.69135505 138.41676592 6.67040923 140.37507737 6.6489563 142.33334351 C6.65643688 149.46447019 6.70253523 155.33615025 11.6875 160.875 C16.7173944 163.32197565 20.60736151 163.43377265 25.8125 161.8125 C29.02415447 159.98626511 30.18826031 159.12532658 32 156 C34.40461882 141.55791959 33.09949238 126.04565888 33.03553081 111.4579711 C33.02163736 107.90990834 33.01534142 104.36183371 33.00868225 100.81375122 C32.98473619 88.77879192 32.94849963 76.74388464 32.90405273 64.70898438 C32.87946711 58.03015438 32.86213305 51.35134362 32.85249335 44.67247498 C32.84598372 40.4652967 32.83050075 36.2582803 32.80817592 32.05115771 C32.79364654 28.82301786 32.79226222 25.59486703 32.78881836 22.36669922 C32.78005676 21.21232864 32.77129517 20.05795807 32.76226807 18.86860657 C32.7783737 5.64886212 32.7783737 5.64886212 36.625 1.0625 C40.07452793 -0.48070986 43.32255727 -0.55453501 47 0 C51.56944444 2.13888889 51.56944444 2.13888889 53 5 C53.10039547 6.99191754 53.13511357 8.9872506 53.14044189 10.98168945 C53.14615204 12.25735275 53.15186218 13.53301605 53.15774536 14.84733582 C53.15899082 16.26931753 53.16011589 17.69129935 53.16113281 19.11328125 C53.1657602 20.60472232 53.17078475 22.09616221 53.17617798 23.58760071 C53.18931794 27.64794112 53.19575088 31.70826499 53.20018864 35.76862335 C53.20311883 38.3071566 53.2072237 40.84568533 53.21169281 43.38421631 C53.22537643 51.33133295 53.23503694 59.27843925 53.2388947 67.22556686 C53.2433676 76.38939404 53.26087605 85.55307148 53.2898953 94.71685314 C53.31155606 101.80404303 53.32160144 108.89119096 53.32293582 115.97841358 C53.32398137 120.20861882 53.32983496 124.43868347 53.34775543 128.66885376 C53.3643106 132.65467315 53.36635577 136.64024745 53.35761642 140.6260891 C53.35684982 142.08287401 53.36113868 143.53967249 53.37107468 144.99642372 C53.45439974 157.98330997 51.79834234 168.0590158 43 178 C40.48486329 180.11057755 37.9391617 182.0573779 35.234375 183.91796875 C31.43829228 187.45522765 30.15991196 191.51336832 29.61904907 196.54153442 C29.61666229 197.78998138 29.61427551 199.03842834 29.61181641 200.32470703 C29.60393097 201.36757874 29.60393097 201.36757874 29.59588623 202.43151855 C29.58278729 204.70718501 29.59138572 206.98214016 29.6015625 209.2578125 C29.5995393 210.85008884 29.59662582 212.44236427 29.59286499 214.03463745 C29.58845575 217.36156084 29.594829 220.68824165 29.60888672 224.01513672 C29.6260059 228.27332856 29.61611158 232.53095419 29.59816933 236.78912544 C29.58731727 240.07315318 29.59078384 243.35704713 29.5985527 246.64107895 C29.60054934 248.21112002 29.59811432 249.78117337 29.59111404 251.3512001 C29.58347275 253.54582071 29.59513872 255.73952917 29.61181641 257.93408203 C29.61539658 259.80436569 29.61539658 259.80436569 29.61904907 261.71243286 C30.13606337 266.17421285 31.95272555 268.68120995 34.6875 272.125 C36.76337751 276.67216026 36.64262642 281.09004532 36 286 C33.69255468 290.88113432 30.79661805 293.55643986 26 296 C21.36865328 297.23389894 17.87641734 297.24831825 13.25 295.9375 C8.98194199 293.3930808 6.25259236 290.50518472 4 286 C2.98069913 275.77357157 2.98069913 275.77357157 5.875 271.4375 C7.20211362 269.91522261 8.57196656 268.42803344 10 267 C10.31513251 263.89880616 10.31513251 263.89880616 10.2746582 260.19873047 C10.27976913 259.49927811 10.28488007 258.79982574 10.29014587 258.07917786 C10.30408469 255.75842811 10.30308081 253.43797424 10.30078125 251.1171875 C10.30466816 249.50253184 10.30900282 247.88787719 10.31376648 246.27322388 C10.32123958 242.88198543 10.32093126 239.49085103 10.31567383 236.09960938 C10.30990243 231.76873257 10.32674798 227.43828667 10.3500185 223.107481 C10.36481144 219.76843808 10.36561959 216.4294973 10.36250877 213.0904274 C10.36302002 211.49494707 10.36822055 209.89946073 10.37832069 208.3040123 C10.58252845 196.79161342 10.58252845 196.79161342 7 186 C4.57439317 183.46399235 4.57439317 183.46399235 1.6875 181.5 C-5.97032256 175.59224785 -11.04361095 169.61057705 -13 160 C-14.56326427 145.0321563 -14.16444441 129.88061904 -14.16725707 114.85218382 C-14.16797505 112.69199722 -14.17012292 110.53181669 -14.17275429 108.37163162 C-14.18194554 100.81627254 -14.18609582 93.2609309 -14.18530273 85.70556641 C-14.18469908 78.68835522 -14.19532292 71.67122018 -14.2110464 64.6540283 C-14.22413259 58.59587317 -14.22948639 52.53774299 -14.22884732 46.47957385 C-14.22859327 42.87514262 -14.2313953 39.27077975 -14.24202538 35.66636276 C-14.25353058 31.65821846 -14.24895302 27.65024612 -14.24291992 23.64208984 C-14.24853943 22.45966705 -14.25415894 21.27724426 -14.25994873 20.05899048 C-14.21117076 7.31675614 -14.21117076 7.31675614 -10.375 1.5625 C-6.9798639 -0.67114217 -3.88209235 -0.74091623 0 0 Z " fill="#092951" transform="translate(492,419)"/>
<path d="M0 0 C3.03569722 0.15567678 4.50292985 0.45102601 6.56884766 2.73266602 C13.35133002 13.47796007 12.97041624 31.269187 14.625 43.5625 C15.09193772 47.00075015 15.5605831 50.43875391 16.03158569 53.87644958 C16.32251465 56.0029286 16.61089091 58.12975882 16.89639282 60.25697327 C17.09197281 61.69513649 17.09197281 61.69513649 17.29150391 63.16235352 C17.40458893 64.00250504 17.51767395 64.84265656 17.63418579 65.70826721 C17.9759312 67.84921509 18.4382093 69.90721397 19 72 C20.37840295 66.7738878 21.42495091 61.67428471 22.1484375 56.30859375 C22.35128163 54.85347644 22.55441623 53.39839961 22.7578125 51.94335938 C23.06626379 49.70222233 23.37188386 47.46079163 23.671875 45.21850586 C24.73650633 37.31169209 25.93739913 29.47414592 27.8515625 21.72265625 C28.285896 19.95740601 28.285896 19.95740601 28.72900391 18.15649414 C30.21042081 14.477424 31.97036721 12.52666757 35 10 C37.125 9.9375 37.125 9.9375 39 11 C45.37048367 18.36714952 45.87886277 30.17609989 47.5 39.4375 C49.0141003 48.0581033 50.76069466 56.53623381 53 65 C54.72015798 60.57673662 56.29375082 56.1556798 57.68359375 51.6171875 C57.97169922 50.67746094 58.25980469 49.73773438 58.55664062 48.76953125 C59.14572769 46.83377288 59.72903009 44.89624503 60.30664062 42.95703125 C62.0430712 37.33393535 63.74405004 32.25594996 68 28 C70.8125 27.625 70.8125 27.625 74 28 C77.98723562 31.40087744 79.26760497 36.04369299 80.91796875 40.86328125 C82.1165164 44.33777137 83.42313585 47.76007907 84.75 51.1875 C85.17796875 52.29480469 85.6059375 53.40210938 86.046875 54.54296875 C86.36140625 55.35378906 86.6759375 56.16460937 87 57 C89.90433148 57.29812279 89.90433148 57.29812279 91.47265625 55.90625 C94.33494408 52.33388054 96.13347561 48.10396792 98.18359375 44.03125 C99.92841123 41.11946858 101.06856613 39.63883311 104 38 C107.3125 37.75 107.3125 37.75 111 39 C114.55974999 42.56705954 117.28784429 46.54601543 119.5 51.0625 C120.91964342 53.3525531 120.91964342 53.3525531 124.125 53.5 C127.24915109 53.09688373 129.21563601 52.60269592 132.0625 51.5 C139.96049475 48.62800191 149.85229025 49.10518378 158 51 C158.33 51.66 158.66 52.32 159 53 C155.58474749 54.1384175 152.38740634 54.50363474 148.8125 54.9375 C143.41863328 55.61554165 138.23047979 56.5055772 133 58 C134.51043035 70.76313645 144.27999094 80.88131978 153.46484375 89.1484375 C154.05958496 89.6846875 154.65432617 90.2209375 155.26708984 90.7734375 C156.44551122 91.82462654 157.63442897 92.86418918 158.83447266 93.890625 C160.47265625 95.3359375 160.47265625 95.3359375 163 98 C163 99.32 163 100.64 163 102 C157.30920947 101.60480621 153.83086934 99.9900284 149.5 96.4375 C148.649823 95.7554248 148.649823 95.7554248 147.7824707 95.05957031 C138.53980673 87.49558113 130.38067744 77.29397302 127.03125 65.625 C126.6909375 64.75875 126.350625 63.8925 126 63 C124.07083829 62.14109538 124.07083829 62.14109538 121.8125 62.125 C116.66047832 61.3189579 114.53337464 59.05673652 111.375 55.04296875 C109.85512805 52.78474992 108.73874707 50.62665625 108 48 C105.37131077 50.33239189 104.08087648 52.632045 102.625 55.8125 C100.34553593 60.52293331 97.87333799 65.56333101 93 68 C86.51409255 68.98937571 86.51409255 68.98937571 83.12890625 66.77734375 C77.62154927 61.1963918 72 50.01486536 72 42 C71.34 42 70.68 42 70 42 C69.72929687 43.27488281 69.45859375 44.54976563 69.1796875 45.86328125 C68.02789987 51.0341802 66.62465836 56.10788798 65.125 61.1875 C64.88136719 62.05052734 64.63773438 62.91355469 64.38671875 63.80273438 C62.58332085 69.90905837 60.91225359 75.3889661 55.0625 78.625 C52 79 52 79 49.375 77.75 C40.15895113 67.07878552 38.8328339 48.35394843 36 35 C35.71334473 36.76089966 35.71334473 36.76089966 35.42089844 38.55737305 C34.69940908 42.97411115 33.96589441 47.38878614 33.22900391 51.80297852 C32.91362099 53.70218809 32.60136414 55.60191985 32.29248047 57.50219727 C30.53879377 68.27687105 28.66143567 78.68086183 25 89 C25.33 89.33 25.66 89.66 26 90 C26.59093866 91.75678859 27.14347383 93.52652378 27.6796875 95.30078125 C37.8559893 128.03656693 56.57145787 159.19282235 83.625 181 C84.40875 181.66 85.1925 182.32 86 183 C86 183.66 86 184.32 86 185 C86.66 185.33 87.32 185.66 88 186 C82.34629184 185.85503312 79.36403023 183.2266654 75.19140625 179.78125 C73.32562145 178.26467626 71.47296973 176.95786409 69.4375 175.6875 C68.633125 175.130625 67.82875 174.57375 67 174 C67 173.34 67 172.68 67 172 C66.21109375 171.69255859 66.21109375 171.69255859 65.40625 171.37890625 C43.95371767 159.08549081 28.94709513 128.7765476 22 106 C21.8246875 104.71351563 21.649375 103.42703125 21.46875 102.1015625 C21.23671875 100.56628906 21.23671875 100.56628906 21 99 C20.34 98.67 19.68 98.34 19 98 C19.66 98 20.32 98 21 98 C20.21869929 95.50447516 20.21869929 95.50447516 19 93 C18.01 92.67 17.02 92.34 16 92 C12.88744846 87.3330175 11.13932839 82.89814384 9.953125 77.41015625 C9.7896759 76.68474136 9.62622681 75.95932648 9.45782471 75.21192932 C7.39459369 65.70352029 6.09119423 56.06839791 4.75 46.4375 C4.47987053 44.53961323 4.20904084 42.64182598 3.9375 40.74414062 C3.28362318 36.16386271 2.63911609 31.58235988 2 27 C1.71334473 28.94265747 1.71334473 28.94265747 1.42089844 30.92456055 C0.70042124 35.78858003 -0.0333968 40.65051299 -0.77099609 45.51196289 C-1.08674047 47.60517751 -1.39899803 49.6989215 -1.70751953 51.79321289 C-6.07070709 81.36828197 -6.07070709 81.36828197 -11 89 C-14.625 89.75 -14.625 89.75 -18 90 C-18 89.34 -18 88.68 -18 88 C-18.66 88 -19.32 88 -20 88 C-24.74964466 78.54127927 -26.00669712 68.1934181 -27.75 57.875 C-28.06801102 56.04149305 -28.38701317 54.20815771 -28.70703125 52.375 C-29.48280157 47.91856418 -30.24510065 43.46001664 -31 39 C-31.33 39 -31.66 39 -32 39 C-32.16081055 39.7206665 -32.32162109 40.44133301 -32.48730469 41.18383789 C-33.22973794 44.47951074 -33.98969832 47.77090547 -34.75 51.0625 C-35.12898438 52.7630957 -35.12898438 52.7630957 -35.515625 54.49804688 C-36.94106372 60.6096154 -38.27574091 65.88997008 -42 71 C-45.5 72.1875 -45.5 72.1875 -49 72 C-53.81713232 69.10972061 -55.20640178 63.04864685 -57 58 C-57.45439453 56.73929687 -57.45439453 56.73929687 -57.91796875 55.453125 C-60 49.4709507 -60 49.4709507 -60 46 C-60.66 46 -61.32 46 -62 46 C-62.17015625 46.59167969 -62.3403125 47.18335938 -62.515625 47.79296875 C-65.40487909 57.2137813 -65.40487909 57.2137813 -69 60 C-72.81383175 60.78823232 -76.18701202 60.79958521 -80 60 C-82.00601862 58.61060187 -83.56310311 57.06189689 -85.28515625 55.33984375 C-88.54983327 52.78908243 -92.0744387 53.576712 -96 54 C-104.75454514 54.83919308 -112.41161539 55.12080518 -121 53 C-121 52.01 -121 51.02 -121 50 C-120.14619751 49.87939209 -120.14619751 49.87939209 -119.27514648 49.75634766 C-116.66185196 49.38427099 -114.04969869 49.00469066 -111.4375 48.625 C-110.54224609 48.49867188 -109.64699219 48.37234375 -108.72460938 48.2421875 C-103.65315533 47.49911731 -98.90756626 46.46182825 -94 45 C-88.38262489 44.0230652 -84.84667758 44.75001414 -80.125 48 C-79.40570313 48.556875 -78.68640625 49.11375 -77.9453125 49.6875 C-75.97663076 51.27965065 -75.97663076 51.27965065 -73 51 C-72.69707031 50.19175781 -72.39414063 49.38351562 -72.08203125 48.55078125 C-67.5530261 36.99833426 -67.5530261 36.99833426 -63 34 C-60 33.6875 -60 33.6875 -57 35 C-51.22184085 40.88103439 -49.34728366 50.32887722 -47 58 C-43.98511533 49.56550121 -42.12058422 40.99106576 -40.25 32.2421875 C-40.0025 31.12585938 -39.755 30.00953125 -39.5 28.859375 C-39.2834375 27.85358398 -39.066875 26.84779297 -38.84375 25.81152344 C-37.94314506 22.81054932 -36.80352295 20.55687896 -35 18 C-32.625 16.875 -32.625 16.875 -30 17 C-25.79749614 20.47838011 -24.2133807 23.22646081 -23 28.5 C-22.77135254 29.48564941 -22.77135254 29.48564941 -22.53808594 30.49121094 C-16 59.93209493 -16 59.93209493 -16 71 C-15.34 71 -14.68 71 -14 71 C-14.33 70.01 -14.66 69.02 -15 68 C-14.54485758 66.37307128 -14.08196969 64.74788313 -13.57879639 63.13516235 C-12.41067085 58.82598259 -11.98727884 54.36925167 -11.4140625 49.94921875 C-11.12024101 47.78444417 -10.82595566 45.61973251 -10.53125 43.45507812 C-10.07626785 40.07237412 -9.62523242 36.68927715 -9.18261719 33.30493164 C-8.75046408 30.01802874 -8.30208868 26.73364691 -7.8515625 23.44921875 C-7.7253653 22.4509758 -7.59916809 21.45273285 -7.46914673 20.42424011 C-6.48963618 13.39176855 -5.20088309 5.20088309 0 0 Z " fill="#4483C7" transform="translate(309,437)"/>
<path d="M0 0 C2.75 0.375 2.75 0.375 6 2 C10.04288824 8.87847571 11.05063578 16.84277091 12.10546875 24.61328125 C12.27500565 25.78585983 12.44454254 26.95843842 12.61921692 28.16654968 C13.15371292 31.88030305 13.67107188 35.59619546 14.1875 39.3125 C14.71852321 43.04602382 15.253 46.77904115 15.78791809 50.51200867 C16.11824309 52.82651918 16.44558558 55.14145781 16.76957703 57.4568634 C16.91675674 58.50532944 17.06393646 59.55379547 17.21557617 60.6340332 C17.34340988 61.5520723 17.47124359 62.47011139 17.60295105 63.41596985 C17.99430623 65.96294446 18.47449014 68.47760601 19 71 C19.16604736 69.97229492 19.33209473 68.94458984 19.50317383 67.88574219 C20.12985719 64.01575168 20.7633235 60.14689526 21.39868164 56.27832031 C21.6709959 54.61455247 21.94155196 52.95049575 22.21020508 51.28613281 C26.6012734 24.10566519 26.6012734 24.10566519 31 18 C34.1875 17.1875 34.1875 17.1875 37 17 C40.37501917 20.74767754 41.79759659 23.80810402 43 28.6875 C43.15952148 29.32598877 43.31904297 29.96447754 43.48339844 30.62231445 C44.00610546 32.74447441 44.50514292 34.87118087 45 37 C45.18626953 37.78890625 45.37253906 38.5778125 45.56445312 39.390625 C46.13527087 41.82095412 46.69560832 44.25337402 47.25 46.6875 C47.4253125 47.45344482 47.600625 48.21938965 47.78125 49.00854492 C48.54222626 52.45019816 49 55.45637365 49 59 C49.66 58.67 50.32 58.34 51 58 C51.81786741 55.48416873 52.54986423 52.98572143 53.25 50.4375 C57.02026616 37.63903627 57.02026616 37.63903627 62 34 C65.44848198 33.5961716 66.57071085 33.69179241 69.4375 35.75 C73.37658034 40.05288075 75.5701657 45.76458383 78 51 C81.11363735 50.41239382 82.80993558 49.49805583 85.1875 47.4375 C89.42770407 44.33161804 92.8939598 44.22834762 98 45 C100.65083137 45.65647548 103.25554608 46.41418239 105.87109375 47.19921875 C111.81290706 48.71990755 117.91459413 49.301944 124 50 C124 50.99 124 51.98 124 53 C115.279112 55.00303081 108.02603107 55.04105129 99.27001953 53.46142578 C95.05574956 52.803092 93.49671874 52.73170353 89.59375 54.83984375 C88.7378125 55.55269531 87.881875 56.26554687 87 57 C83.99321205 59.46009923 81.93695844 60.71192987 78 61 C73.47677276 59.89677384 71.59893598 57.772649 69 54 C67.63515393 51.68392604 66.32290264 49.34052005 65 47 C64.80889648 47.54938232 64.61779297 48.09876465 64.42089844 48.66479492 C63.54082302 51.17608112 62.64558011 53.68170341 61.75 56.1875 C61.29947266 57.48397461 61.29947266 57.48397461 60.83984375 58.80664062 C59.15068827 63.49674255 57.58822769 67.39739064 54 71 C51.0625 72.125 51.0625 72.125 48 72 C39.80732422 66.53821615 38.71644186 55.07932128 36.87890625 46.1015625 C36.69686646 45.22411377 36.51482666 44.34666504 36.32727051 43.44262695 C35.88222878 41.29561118 35.43987408 39.14807937 35 37 C34.71334473 38.6857312 34.71334473 38.6857312 34.42089844 40.40551758 C33.70057979 44.62494628 32.96671713 48.84193044 32.22900391 53.05834961 C31.91320223 54.87412875 31.60094438 56.6905283 31.29248047 58.50756836 C26.71799888 85.41410652 26.71799888 85.41410652 21 90 C18.5625 90.0625 18.5625 90.0625 16 89 C7.20234551 77.63618679 6.71962152 59.83734102 4.75 46 C4.47990952 44.14572498 4.20908024 42.29155741 3.9375 40.4375 C3.2831756 35.95952166 2.63875208 31.48022499 2 27 C1.90865784 27.59975647 1.81731567 28.19951294 1.72320557 28.81744385 C0.762017 35.11466543 -0.2139843 41.40946888 -1.19824219 47.703125 C-1.5626488 50.04564683 -1.92339773 52.38874092 -2.28027344 54.73242188 C-2.79679304 58.12009794 -3.32686062 61.50543075 -3.859375 64.890625 C-4.09089264 66.43825531 -4.09089264 66.43825531 -4.3270874 68.01715088 C-7.28444801 86.51881916 -7.28444801 86.51881916 -11.94476318 90.7769165 C-14 92 -14 92 -17 93 C-17.04125 94.27875 -17.0825 95.5575 -17.125 96.875 C-20.07857898 125.17347968 -40.18320029 153.00111854 -61.5 170.75 C-63.32110153 172.18235636 -65.15461566 173.59906738 -67 175 C-67.97710938 175.74636719 -68.95421875 176.49273438 -69.9609375 177.26171875 C-74.20549878 180.43091531 -77.97921958 183.20943494 -83 185 C-80.07881894 181.30556513 -77.26064068 178.34537721 -73.578125 175.37890625 C-71.17635402 173.28032913 -69.16618576 170.90575208 -67.10546875 168.4765625 C-65.50463036 166.59357264 -63.88415531 164.7413253 -62.23828125 162.8984375 C-55.00911006 154.74109383 -48.70229913 146.28896265 -43 137 C-42.61215332 136.36868164 -42.22430664 135.73736328 -41.82470703 135.08691406 C-33.31799271 121.04102685 -26.38711133 106.12376962 -23 90 C-22.67 89.01 -22.34 88.02 -22 87 C-22.46757881 85.0669341 -22.46757881 85.0669341 -23.3125 83.015625 C-25.20945467 77.67397309 -26.12885469 72.33847938 -27 66.75 C-27.16661133 65.71746094 -27.33322266 64.68492187 -27.50488281 63.62109375 C-29.13140274 53.43279687 -30.5946293 43.22087779 -32 33 C-32.58675396 35.29083727 -33.16999874 37.58244905 -33.75 39.875 C-34.02070312 40.9424646 -34.02070312 40.9424646 -34.296875 42.03149414 C-35.46769615 46.70613985 -36.52139145 51.3930847 -37.50878906 56.10961914 C-41.01509506 72.72623329 -41.01509506 72.72623329 -45.9375 78.125 C-48.7748122 79.32870821 -50.1262517 79.07765561 -53 78 C-56.78483951 74.90130099 -57.99385812 71.93315308 -59.4375 67.3125 C-59.64141357 66.66982178 -59.84532715 66.02714355 -60.05541992 65.36499023 C-60.72045207 63.24810231 -61.36309624 61.12551388 -62 59 C-62.35143066 57.83114258 -62.35143066 57.83114258 -62.70996094 56.63867188 C-64.16825516 51.76713811 -65.59432614 46.88695977 -67 42 C-69.91229524 47.60886491 -72.3701 53.27495372 -74.65625 59.16796875 C-76.38838837 62.81855108 -78.3047872 66.1523936 -82 68 C-86.23824262 68.48902799 -88.38739746 68.37506278 -92.0625 66.125 C-97.01169363 61.49425314 -100.05399707 55.01707202 -103 49 C-103.37511719 49.60328125 -103.75023437 50.2065625 -104.13671875 50.828125 C-109.87882937 59.79565292 -109.87882937 59.79565292 -114 62 C-117.03249657 62.30222516 -119.9650847 62.23803257 -123 62 C-123.061875 62.94875 -123.12375 63.8975 -123.1875 64.875 C-125.21460585 78.21122272 -136.3578449 90.54729516 -146.67578125 98.51171875 C-149.82605346 100.52895188 -152.52602265 102.23902335 -156.3125 101.625 C-156.869375 101.41875 -157.42625 101.2125 -158 101 C-156.61959151 95.30581499 -152.28118081 92.58587955 -148 89 C-138.49042367 80.85795124 -132.16329665 69.26065701 -127 58 C-134.62898233 55.69068643 -141.30993896 54.72348736 -149.28515625 55.1875 C-152 55 -152 55 -153.87109375 53.5625 C-155 52 -155 52 -155 51 C-142.37696055 48.9390956 -131.01647419 49.46089339 -119 54 C-115.2762831 50.57820609 -113.20658359 47.50910561 -111 43 C-108.65598208 39.90254775 -107.31486441 39.09732173 -103.5625 37.9375 C-100 38 -100 38 -97.50390625 40.05078125 C-94.74847041 43.2962634 -93.10125554 46.39789273 -91.375 50.25 C-90.32952331 52.57642111 -89.2370956 54.76032929 -88 57 C-86.515 57.495 -86.515 57.495 -85 58 C-82.23992797 52.1392513 -79.70623547 46.28091224 -77.5 40.1875 C-75.61719432 35.20813027 -73.8684528 31.66485002 -70 28 C-67 27 -67 27 -64.5625 27.9375 C-58.03663356 33.19002665 -56.40365944 42.77270691 -54.25 50.5 C-53.93417969 51.60859375 -53.61835937 52.7171875 -53.29296875 53.859375 C-52.52155892 56.57099744 -51.75744193 59.28444932 -51 62 C-50.505 61.01 -50.505 61.01 -50 60 C-49.34 60 -48.68 60 -48 60 C-47.86424561 59.26064209 -47.72849121 58.52128418 -47.58862305 57.75952148 C-46.27547215 50.61582499 -44.95195923 43.47412882 -43.61962891 36.33398438 C-43.10837981 33.58315001 -42.60519492 30.8310649 -42.10546875 28.078125 C-41.86441406 26.79421875 -41.62335938 25.5103125 -41.375 24.1875 C-41.17648437 23.10855469 -40.97796875 22.02960938 -40.7734375 20.91796875 C-39.64788223 16.67155567 -38.12332003 13.12332003 -35 10 C-32.625 9.5625 -32.625 9.5625 -30 10 C-21.18234955 17.26159449 -21.45469854 36.23054449 -19.875 46.9375 C-19.47888701 49.58750074 -19.08113438 52.23724803 -18.68240356 54.88685608 C-18.43677537 56.52267399 -18.19292417 58.15876006 -17.95114136 59.79515076 C-17.39192937 63.55326048 -16.79268505 67.28214989 -16 71 C-15.67 71 -15.34 71 -15 71 C-14.80365967 69.72584229 -14.60731934 68.45168457 -14.4050293 67.13891602 C-13.663228 62.32824487 -12.91898498 57.51795392 -12.17407227 52.70776367 C-11.85441471 50.64145743 -11.53538484 48.57505397 -11.21704102 46.50854492 C-9.6661896 36.4438856 -8.10899387 26.37946266 -6.40234375 16.33984375 C-6.29129807 15.66168106 -6.18025238 14.98351837 -6.06584167 14.2848053 C-5.17157587 9.14599585 -3.81425714 3.81425714 0 0 Z M-50 62 C-50.33 62.99 -50.66 63.98 -51 65 C-50.34 65 -49.68 65 -49 65 C-49.33 64.01 -49.66 63.02 -50 62 Z M-20 90 C-20 90.66 -20 91.32 -20 92 C-19.34 91.67 -18.68 91.34 -18 91 C-18.66 90.67 -19.32 90.34 -20 90 Z " fill="#4482C6" transform="translate(711,437)"/>
<path d="M0 0 C0.58201172 0.42555176 1.16402344 0.85110352 1.76367188 1.28955078 C7.71951806 5.65858472 13.43533538 10.11242436 18.52734375 15.4921875 C20.17750817 17.23937235 20.17750817 17.23937235 23 19.4375 C26.76216352 22.65101467 29.83011136 26.21302238 33 30 C33.6909375 30.80308594 34.381875 31.60617187 35.09375 32.43359375 C52.41787274 52.96023918 63.50481949 76.29875277 71 102 C71.309375 103.02746338 71.309375 103.02746338 71.625 104.07568359 C74.67357147 114.46828617 76.4990168 129.50294961 73 140 C73.99 140 74.98 140 76 140 C76 140.66 76 141.32 76 142 C75.34 142 74.68 142 74 142 C73.67 143.65 73.34 145.3 73 147 C72.34 147 71.68 147 71 147 C70.34 147.66 69.68 148.32 69 149 C68.08337188 146.25011563 67.71612766 144.02376961 67.421875 141.16015625 C62.89795389 99.67996869 47.31647486 59.98169153 16.6796875 30.7890625 C15 29 15 29 15 27 C14.42378906 26.74863281 13.84757812 26.49726563 13.25390625 26.23828125 C10.70790863 24.83952692 9.01425365 23.21902489 6.9375 21.1875 C-29.48296358 -11.98493978 -78.74697442 -24.93790041 -127 -23 C-166.33132982 -20.25080462 -204.7584037 -5.59492155 -234.73046875 20.1875 C-236.76806321 21.81476993 -238.62478991 22.95163141 -241 24 C-241 24.66 -241 25.32 -241 26 C-242.43359375 27.375 -242.43359375 27.375 -244.4375 29 C-276.66849695 56.59425704 -293.95958275 100.97734636 -297.625 142.375 C-297.67914063 143.20773437 -297.73328125 144.04046875 -297.7890625 144.8984375 C-298 147 -298 147 -299 150 C-299.66 150 -300.32 150 -301 150 C-309.36237839 131.30362555 -302.72903127 104.94701635 -296.11572266 86.53857422 C-286.68957668 61.98162768 -272.92060852 41.23876186 -255 22 C-254.31550781 21.26136719 -253.63101563 20.52273438 -252.92578125 19.76171875 C-190.84101275 -44.84775383 -80.55107313 -54.46781863 0 0 Z " fill="#C5E3F8" transform="translate(627,308)"/>
<path d="M0 0 C1.05445313 0.56460937 2.10890625 1.12921875 3.1953125 1.7109375 C37.47467781 20.77491873 62.04812039 53.63476369 73 91 C77.11215293 105.80375056 77.68212769 117.47133768 73 132 C72.34 132 71.68 132 71 132 C70.91548584 131.35788574 70.83097168 130.71577148 70.74389648 130.05419922 C64.884745 86.84151816 47.73565654 47.99361127 12.5 20.875 C-12.3612908 2.37924888 -42.302727 -6.69441059 -73 -8 C-73.85078125 -8.04253906 -74.7015625 -8.08507812 -75.578125 -8.12890625 C-96.83959097 -8.68646218 -118.7347115 -3.80639138 -138 5 C-138.63180176 5.28182129 -139.26360352 5.56364258 -139.91455078 5.85400391 C-174.46894707 21.40906522 -201.05621617 50.36125065 -215.02734375 85.421875 C-220.83831039 100.82443718 -223.63827311 116.76259761 -226 133 C-230.16127886 126.75808171 -231.54206996 120.92324468 -231.4375 113.5625 C-231.42847656 112.78245605 -231.41945313 112.00241211 -231.41015625 111.19873047 C-230.38023979 75.73098231 -207.6494571 43.5103006 -182.8125 19.9375 C-132.70780749 -24.30162202 -58.26483334 -32.08646004 0 0 Z " fill="#B4D8F4" transform="translate(589,335)"/>
<path d="M0 0 C2.12213012 1.83444103 4.21961599 3.6948495 6.3125 5.5625 C7.04339844 6.19671875 7.77429688 6.8309375 8.52734375 7.484375 C22.3596766 20.27008962 32.39625107 39.55350391 37.3125 57.5625 C37.53679687 58.3771875 37.76109375 59.191875 37.9921875 60.03125 C40.21952016 69.42876314 40.81956369 80.4441344 37.3125 89.5625 C35.234375 90.765625 35.234375 90.765625 33.3125 91.5625 C33.20292969 90.58152344 33.09335937 89.60054688 32.98046875 88.58984375 C29.36779601 57.33729537 19.04245016 28.04264839 -6.19921875 7.640625 C-32.10220286 -12.36847187 -62.15184282 -19.93625603 -94.5625 -16.5625 C-95.35390381 -16.48410889 -96.14530762 -16.40571777 -96.96069336 -16.32495117 C-98.87981881 -16.10472366 -100.78646628 -15.78044818 -102.6875 -15.4375 C-103.0175 -14.7775 -103.3475 -14.1175 -103.6875 -13.4375 C-105.41015625 -13.05078125 -105.41015625 -13.05078125 -107.75 -12.75 C-125.22995456 -9.50835365 -141.17847017 1.40398589 -153.6875 13.5625 C-154.37199219 14.18511719 -155.05648437 14.80773437 -155.76171875 15.44921875 C-174.45402056 32.96636603 -183.17502756 57.72185794 -185.70043945 82.578125 C-185.80316162 83.56941406 -185.90588379 84.56070313 -186.01171875 85.58203125 C-186.09510498 86.46995361 -186.17849121 87.35787598 -186.2644043 88.27270508 C-186.6875 90.5625 -186.6875 90.5625 -188.6875 93.5625 C-189.6775 93.2325 -190.6675 92.9025 -191.6875 92.5625 C-197.90215806 76.20813668 -192.17176818 57.03476187 -185.61474609 41.61669922 C-180.74307905 30.82412247 -174.54766499 21.42487182 -166.6875 12.5625 C-166.01074219 11.75425781 -165.33398438 10.94601562 -164.63671875 10.11328125 C-161.14782166 5.97427911 -161.14782166 5.97427911 -159.6875 4.5625 C-159.0275 4.5625 -158.3675 4.5625 -157.6875 4.5625 C-157.6875 3.9025 -157.6875 3.2425 -157.6875 2.5625 C-113.55918437 -37.7735385 -45.41808577 -38.24612462 0 0 Z " fill="#B0D5F4" transform="translate(588.6875,381.4375)"/>
<path d="M0 0 C0.33 0 0.66 0 1 0 C1.13535156 0.63421875 1.27070313 1.2684375 1.41015625 1.921875 C9.12376879 35.36292577 25.39860929 65.20406038 49 90 C49.59296875 90.64582031 50.1859375 91.29164063 50.796875 91.95703125 C75.02800062 117.56765165 110.91662251 131.35487329 144.80419922 137.50927734 C145.70283691 137.67508301 146.60147461 137.84088867 147.52734375 138.01171875 C148.3380835 138.15440186 149.14882324 138.29708496 149.98413086 138.4440918 C152 139 152 139 154 141 C153.96712417 143.72869407 153.43602229 146.2966618 153 149 C127.76802914 147.06795195 105.11714155 140.67916078 82.75878906 128.91552734 C81.23512071 128.12239071 79.69320212 127.3645024 78.1484375 126.61328125 C65.15375363 120.07668045 53.46144374 109.99820638 43 100 C42.34257812 99.39414062 41.68515625 98.78828125 41.0078125 98.1640625 C18.33698765 76.58580752 3.55561581 47.0842302 -0.9375 16.3125 C-1.07833008 15.37978271 -1.21916016 14.44706543 -1.36425781 13.48608398 C-2.02474642 8.42709084 -2.16660078 4.78556876 0 0 Z " fill="#C2E0F7" transform="translate(347,504)"/>
<path d="M0 0 C0.99 0.495 0.99 0.495 2 1 C-0.21783634 37.09719841 -16.0240024 67.44864208 -40 94 C-40.67675781 94.75023437 -41.35351562 95.50046875 -42.05078125 96.2734375 C-69.57746941 125.15582979 -110.93273546 141.21799911 -150 145 C-152.2852292 139.82816549 -152.2852292 139.82816549 -151.109375 136.4140625 C-147.95946663 132.80916737 -144.65928254 132.74292475 -140.0625 132.0625 C-122.7517192 129.02596209 -106.78364239 123.70784009 -91 116 C-89.86175781 115.44570313 -88.72351563 114.89140625 -87.55078125 114.3203125 C-74.87951202 107.80544099 -63.25517847 99.72368543 -53.0390625 89.80078125 C-51 88 -51 88 -49 88 C-49 87.34 -49 86.68 -49 86 C-47.625 84.375 -47.625 84.375 -46 83 C-45.34 83 -44.68 83 -44 83 C-43.7421875 82.41863281 -43.484375 81.83726562 -43.21875 81.23828125 C-41.89785509 78.81240694 -40.4133848 77.17538134 -38.5 75.1875 C-24.89866824 60.08854868 -15.93854577 41.29345171 -8.375 22.625 C-7.93671875 21.54879395 -7.4984375 20.47258789 -7.046875 19.36376953 C-6.64726563 18.34911621 -6.24765625 17.33446289 -5.8359375 16.2890625 C-5.48063965 15.38881348 -5.1253418 14.48856445 -4.75927734 13.56103516 C-3.97213553 10.9060134 -3.85439824 8.7528026 -4 6 C-2 7 -2 7 -1 8 C-1.0309375 6.576875 -1.0309375 6.576875 -1.0625 5.125 C-1 2 -1 2 0 0 Z " fill="#C4E2F7" transform="translate(676,508)"/>
<path d="M0 0 C13.814034 10.67072088 23.38308987 23.64526581 29.125 40.125 C29.43179688 40.99253906 29.73859375 41.86007812 30.0546875 42.75390625 C33.51331101 53.80503185 34.61527006 66.96021799 31.125 78.125 C30.465 79.115 29.805 80.105 29.125 81.125 C28.135 81.125 27.145 81.125 26.125 81.125 C26.08761719 79.85527344 26.05023437 78.58554687 26.01171875 77.27734375 C25.24337379 55.53445501 21.16072381 37.55536063 8 19.8125 C7.50242187 19.13574219 7.00484375 18.45898438 6.4921875 17.76171875 C5.20399339 15.99793659 5.20399339 15.99793659 3.125 15.125 C3.125 14.465 3.125 13.805 3.125 13.125 C2.54492188 12.86074219 1.96484375 12.59648437 1.3671875 12.32421875 C-0.96678768 11.07590798 -2.73607604 9.64972718 -4.75 7.9375 C-20.78844076 -4.62114856 -39.87331022 -8.73363608 -59.875 -6.875 C-78.27655735 -4.41202232 -95.67481334 5.23208544 -107.7421875 19.2890625 C-122.39388837 38.77099443 -125.55144677 59.34182538 -124.875 83.125 C-126.525 83.125 -128.175 83.125 -129.875 83.125 C-136.00770235 67.58882071 -132.73960971 49.25718722 -126.875 34.125 C-122.87739362 25.02597056 -117.48901767 17.50034345 -110.875 10.125 C-110.32328125 9.49078125 -109.7715625 8.8565625 -109.203125 8.203125 C-80.51376316 -22.75866154 -33.15627202 -23.03684723 0 0 Z " fill="#B0D5F3" transform="translate(561.875,403.875)"/>
<path d="M0 0 C2.97 0.495 2.97 0.495 6 1 C5.835 1.495 5.67 1.99 5.5 2.5 C4.86714817 5.16872074 4.86714817 5.16872074 5.12109375 8.62890625 C5.14093871 13.23815857 4.06471419 17.10829567 2.5625 21.4375 C2.29663086 22.21246826 2.03076172 22.98743652 1.75683594 23.78588867 C-3.20053126 37.63760354 -10.45667333 49.84601522 -20 61 C-20.44633789 61.52464844 -20.89267578 62.04929687 -21.35253906 62.58984375 C-27.30644006 69.51278763 -33.60316602 75.60556338 -41 81 C-41.97453125 81.72832031 -42.9490625 82.45664062 -43.953125 83.20703125 C-62.40564509 96.54647619 -84.8630208 106.57314551 -108 106 C-107.67 104.02 -107.34 102.04 -107 100 C-105.91589844 99.75378906 -104.83179688 99.50757813 -103.71484375 99.25390625 C-78.98876796 93.04659138 -54.07173185 81.08420807 -36.46728516 62.32470703 C-35 61 -35 61 -33 61 C-32.74347656 60.41992188 -32.48695313 59.83984375 -32.22265625 59.2421875 C-30.88700357 56.79277972 -29.37075692 55.13246274 -27.4375 53.125 C-15.91243716 40.36809168 -8.13956285 24.57600817 -3.04296875 8.27734375 C-2.14404738 5.45264327 -1.14198173 2.73352189 0 0 Z " fill="#B8DAF5" transform="translate(644,503)"/>
<path d="M0 0 C0.07476562 0.54785156 0.14953125 1.09570312 0.2265625 1.66015625 C4.93949903 30.07639123 25.46597579 58.50718484 48.3984375 75.33203125 C62.61225281 85.2760109 77.50934312 92.12631804 93.84033203 97.85620117 C103.40544443 101.27231274 103.40544443 101.27231274 107 105 C107 105.66 107 106.32 107 107 C81.15950363 106.26693627 57.66647451 96.58852545 38 80 C36.27180573 78.66540654 34.54263631 77.33207488 32.8125 76 C28.30229929 72.383396 24.62436997 68.48692026 21 64 C20.36449219 63.25105469 19.72898437 62.50210938 19.07421875 61.73046875 C8.992775 49.61316063 0.99360936 35.75298117 -3.875 20.75 C-4.19827271 19.7758313 -4.19827271 19.7758313 -4.52807617 18.78198242 C-5.99880085 13.98216607 -6.38194279 9.96002412 -6 5 C-1.9375 0 -1.9375 0 0 0 Z " fill="#B8DAF5" transform="translate(381,502)"/>
<path d="M0 0 C4.55765182 1.99397267 5.99500407 4.85836347 8 9.3125 C9.87283253 14.24498791 11.45673274 19.26897124 13 24.3125 C15.08151404 18.39551414 15.08151404 18.39551414 16.5625 12.3125 C16.706875 11.6525 16.85125 10.9925 17 10.3125 C17.66 9.9825 18.32 9.6525 19 9.3125 C20.13350534 7.29580173 20.13350534 7.29580173 21 5.3125 C21 6.3025 21 7.2925 21 8.3125 C22.32 8.6425 23.64 8.9725 25 9.3125 C25.78694997 18.99635654 23.78693821 29.3196497 18 37.3125 C14.5625 38.375 14.5625 38.375 11 38.3125 C6.18286768 35.42222061 4.79359822 29.36114685 3 24.3125 C2.54560547 23.05179687 2.54560547 23.05179687 2.08203125 21.765625 C0 15.7834507 0 15.7834507 0 12.3125 C-0.66 12.3125 -1.32 12.3125 -2 12.3125 C-2.17015625 12.90417969 -2.3403125 13.49585938 -2.515625 14.10546875 C-5.40487909 23.5262813 -5.40487909 23.5262813 -9 26.3125 C-12.81383175 27.10073232 -16.18701202 27.11208521 -20 26.3125 C-22.00601862 24.92310187 -23.56310311 23.37439689 -25.28515625 21.65234375 C-28.54983327 19.10158243 -32.0744387 19.889212 -36 20.3125 C-44.75454514 21.15169308 -52.41161539 21.43330518 -61 19.3125 C-61 18.3225 -61 17.3325 -61 16.3125 C-60.43079834 16.23209473 -59.86159668 16.15168945 -59.27514648 16.06884766 C-56.66185196 15.69677099 -54.04969869 15.31719066 -51.4375 14.9375 C-50.54224609 14.81117188 -49.64699219 14.68484375 -48.72460938 14.5546875 C-43.65315533 13.81161731 -38.90756626 12.77432825 -34 11.3125 C-28.38262489 10.3355652 -24.84667758 11.06251414 -20.125 14.3125 C-19.40570313 14.869375 -18.68640625 15.42625 -17.9453125 16 C-15.97663076 17.59215065 -15.97663076 17.59215065 -13 17.3125 C-12.69707031 16.50425781 -12.39414063 15.69601562 -12.08203125 14.86328125 C-6.52136663 0.67930902 -6.52136663 0.67930902 0 0 Z " fill="#4483C7" transform="translate(249,470.6875)"/>
<path d="M0 0 C1.85528709 2.78293064 2.62758149 4.68689017 3.55859375 7.83984375 C13.27254572 39.53647956 32.54954507 69.98123376 58.625 91 C59.40875 91.66 60.1925 92.32 61 93 C61 93.66 61 94.32 61 95 C61.66 95.33 62.32 95.66 63 96 C57.34629184 95.85503312 54.36403023 93.2266654 50.19140625 89.78125 C48.32562145 88.26467626 46.47296973 86.95786409 44.4375 85.6875 C43.633125 85.130625 42.82875 84.57375 42 84 C42 83.34 42 82.68 42 82 C41.4740625 81.79503906 40.948125 81.59007812 40.40625 81.37890625 C18.95371767 69.08549081 3.94709513 38.7765476 -3 16 C-3.1753125 14.71351563 -3.350625 13.42703125 -3.53125 12.1015625 C-3.6859375 11.07804688 -3.840625 10.05453125 -4 9 C-4.66 8.67 -5.32 8.34 -6 8 C-5.34 8 -4.68 8 -4 8 C-4.495 6.824375 -4.495 6.824375 -5 5.625 C-6 3 -6 3 -6 1 C-4.02 0.67 -2.04 0.34 0 0 Z " fill="#C3E0F6" transform="translate(334,527)"/>
<path d="M0 0 C2.00720923 0.28674418 4.0085944 0.61866701 6 1 C6.103125 2.01707031 6.20625 3.03414063 6.3125 4.08203125 C8.28900868 15.34588471 15.86611432 25.38657854 23 34 C23.82242187 34.99902344 24.64484375 35.99804688 25.4921875 37.02734375 C35.02622036 48.19762764 46.9977729 56.07533913 59.5859375 63.44140625 C62 65 62 65 63 67 C62.67 67.66 62.34 68.32 62 69 C62.66 69.33 63.32 69.66 64 70 C60.02792603 71.32402466 57.68885361 70.0253933 54 68.5 C53.32936523 68.22518799 52.65873047 67.95037598 51.96777344 67.66723633 C28.84263668 57.87354774 10.6534784 38.30324653 0.93359375 15.33203125 C0.62550781 14.56246094 0.31742187 13.79289063 0 13 C-0.45375 11.906875 -0.9075 10.81375 -1.375 9.6875 C-2.12309139 6.47070701 -1.8138829 4.18154224 -1 1 C-0.67 0.67 -0.34 0.34 0 0 Z " fill="#B3D7F4" transform="translate(408,501)"/>
<path d="M0 0 C0.66 0.33 1.32 0.66 2 1 C2 1.66 2 2.32 2 3 C4.97 2.505 4.97 2.505 8 2 C7.01 2.66 6.02 3.32 5 4 C4.63723753 5.82364648 4.63723753 5.82364648 4.6875 8 C2.62340563 35.06689793 -17.15288504 61.92626556 -36.74609375 79.45703125 C-39.45031329 81.70862965 -42.19738167 83.87237848 -45 86 C-46.46566406 87.11955078 -46.46566406 87.11955078 -47.9609375 88.26171875 C-52.20549878 91.43091531 -55.97921958 94.20943494 -61 96 C-58.07881894 92.30556513 -55.26064068 89.34537721 -51.578125 86.37890625 C-49.17635402 84.28032913 -47.16618576 81.90575208 -45.10546875 79.4765625 C-43.50463036 77.59357264 -41.88415531 75.7413253 -40.23828125 73.8984375 C-33.00911006 65.74109383 -26.70229913 57.28896265 -21 48 C-20.61215332 47.36868164 -20.22430664 46.73736328 -19.82470703 46.08691406 C-11.755502 32.76342164 -4.67710218 18.37660776 -1.47265625 3.0546875 C-1 1 -1 1 0 0 Z " fill="#C0DEF4" transform="translate(689,526)"/>
<path d="M0 0 C2 1 2 1 4 3 C5.98921046 15.15628614 -3.19598695 28.39935649 -10 38 C-13.36895991 42.2941338 -17.11905454 46.16997073 -21 50 C-21.73992188 50.73863281 -22.47984375 51.47726562 -23.2421875 52.23828125 C-31.65395859 60.17246094 -42.53227711 67.56861301 -54 70 C-56.30859375 69.58984375 -56.30859375 69.58984375 -58 69 C-57.05035251 65.2538044 -56.14342132 64.09936142 -52.91015625 61.859375 C-51.63368311 61.14527352 -50.35071117 60.44270239 -49.0625 59.75 C-42.10183126 55.78769634 -35.97208016 51.37016972 -30 46 C-29.23300781 45.31550781 -28.46601562 44.63101563 -27.67578125 43.92578125 C-15.58339695 32.50871335 -7.60105625 18.31165514 -1.76171875 2.86328125 C-1 1 -1 1 0 0 Z " fill="#B1D6F3" transform="translate(611,501)"/>
<path d="M0 0 C1.875 0.5 1.875 0.5 4 2 C6.47262582 9.1443261 6.24971044 16.1557855 6.17944336 23.64868164 C6.17395959 25.01779349 6.16941271 26.38690936 6.16572571 27.75602722 C6.15605803 30.69051469 6.14027173 33.62488133 6.11976433 36.55931282 C6.0877991 41.20354086 6.07242033 45.84773487 6.05970764 50.49205017 C6.02571299 62.0237635 5.972974 73.55538151 5.9105835 85.0869751 C5.86208075 94.05868405 5.8200186 103.03030816 5.79907519 112.0021295 C5.78758152 116.61499031 5.76222401 121.22749871 5.72632778 125.84023106 C5.70708245 128.71295522 5.70044906 131.58560858 5.69726372 134.45839119 C5.69135505 136.41676592 5.67040923 138.37507737 5.6489563 140.33334351 C5.61689273 150.49084362 5.61689273 150.49084362 10.859375 158.86328125 C13.33194012 160.17626747 15.493751 160.71603636 18.25 161.1875 C19.14203125 161.34605469 20.0340625 161.50460937 20.953125 161.66796875 C21.62859375 161.77753906 22.3040625 161.88710938 23 162 C22.67 162.66 22.34 163.32 22 164 C15.97930006 163.73241334 11.69294156 163.13425804 7 159 C2.63766135 152.08042835 2.84289787 144.76355215 2.79467773 136.85253906 C2.77982834 135.33843697 2.77982834 135.33843697 2.76467896 133.79374695 C2.7330798 130.45106331 2.70826142 127.10836642 2.68359375 123.765625 C2.66297235 121.41184162 2.64197473 119.05806151 2.62062073 116.70428467 C2.57664559 111.7512808 2.53575932 106.79826468 2.49731445 101.84521484 C2.44882154 95.60135144 2.39513105 89.35754846 2.33931541 83.11374664 C2.28545395 77.06022244 2.23435222 71.0066759 2.18359375 64.953125 C2.17351665 63.77283218 2.16343956 62.59253937 2.1530571 61.3764801 C2.05717664 49.93082534 1.97492201 38.48701329 2.04345703 27.04101562 C2.04752721 26.22514858 2.05159739 25.40928154 2.0557909 24.56869125 C2.07484418 20.90429523 2.10350903 17.24058383 2.15342712 13.57647705 C2.16217361 12.34693298 2.1709201 11.11738892 2.17993164 9.85058594 C2.19318985 8.80513611 2.20644806 7.75968628 2.22010803 6.68255615 C1.99583685 3.94926179 1.40776498 2.32693238 0 0 Z " fill="#062041" transform="translate(493,421)"/>
<path d="M0 0 C0.44988281 0.94359375 0.89976562 1.8871875 1.36328125 2.859375 C6.75437076 13.77304401 13.3299458 21.94939848 22.37109375 30.046875 C22.92442383 30.5428418 23.47775391 31.03880859 24.04785156 31.54980469 C25.11765621 32.49599879 26.19869826 33.42968034 27.29199219 34.34863281 C28.76171875 35.625 28.76171875 35.625 31 38 C31 39.32 31 40.64 31 42 C25.30920947 41.60480621 21.83086934 39.9900284 17.5 36.4375 C16.93321533 35.9827832 16.36643066 35.52806641 15.7824707 35.05957031 C6.67026287 27.60234352 -3.19676185 16.67297762 -4.7265625 4.5625 C-4.81679688 3.386875 -4.90703125 2.21125 -5 1 C-2 0 -2 0 0 0 Z " fill="#B2D5F2" transform="translate(441,497)"/>
<path d="M0 0 C1.32 0 2.64 0 4 0 C4.62936032 11.24567525 -3.62172506 21.33663469 -10.66357422 29.54736328 C-15.26072038 34.54426128 -20.49688192 38.87190322 -27 41 C-29.3125 40.625 -29.3125 40.625 -31 40 C-29.61959151 34.30581499 -25.28118081 31.58587955 -21 28 C-14.57605652 22.49985371 -10.45330065 15.81462669 -6.05712891 8.69091797 C-1.66409861 1.66409861 -1.66409861 1.66409861 0 0 Z " fill="#B2D5F2" transform="translate(584,498)"/>
<path d="M0 0 C0.33 0 0.66 0 1 0 C2.09797772 92.57567351 2.09797772 92.57567351 2.125 123 C2.12749756 123.98580048 2.12999512 124.97160095 2.13256836 125.98727417 C2.13830086 128.67905483 2.13709896 131.37071903 2.1328125 134.0625 C2.13578842 135.18864464 2.13578842 135.18864464 2.13882446 136.33753967 C2.12208696 140.01629747 1.87783261 143.42241804 1 147 C0.67 147 0.34 147 0 147 C-1.04928964 131.64192966 -1.14946643 116.32073374 -1.1343255 100.93117332 C-1.1317528 97.48800967 -1.13415201 94.04484836 -1.13571167 90.60168457 C-1.13751536 84.8430126 -1.13517076 79.08435359 -1.13037109 73.32568359 C-1.12489034 66.67305241 -1.12672572 60.02045171 -1.1321975 53.36782122 C-1.13673097 47.62476099 -1.13737927 41.88170994 -1.13475883 36.13864851 C-1.13320265 32.72107409 -1.13298507 29.30351404 -1.13629532 25.88594055 C-1.13882355 22.09516294 -1.13498074 18.30444501 -1.12939453 14.51367188 C-1.13141876 13.38546524 -1.13344299 12.25725861 -1.13552856 11.09486389 C-1.13270874 10.06642868 -1.12988892 9.03799347 -1.12698364 7.97839355 C-1.12660662 7.0840435 -1.12622959 6.18969345 -1.12584114 5.26824188 C-1 3 -1 3 0 0 Z " fill="#0E203A" transform="translate(526,426)"/>
<path d="M0 0 C0.33 0 0.66 0 1 0 C1.00238835 0.67384011 1.00477671 1.34768023 1.00723743 2.04193974 C1.06641838 18.45117017 1.14198818 34.86023542 1.23571491 51.26930332 C1.28064715 59.20466851 1.32006771 67.13998907 1.34643555 75.07543945 C1.36943651 81.99338772 1.40285788 88.91119447 1.44870156 95.82903045 C1.47260563 99.49071747 1.49135279 103.15226457 1.49761391 106.81402779 C1.50480544 110.90559927 1.53526464 114.99668491 1.56762695 119.08813477 C1.56619186 120.29726532 1.56475677 121.50639587 1.5632782 122.75216675 C1.64055649 129.6570291 1.71393534 135.70703184 6.859375 140.86328125 C9.33194012 142.17626747 11.493751 142.71603636 14.25 143.1875 C15.14203125 143.34605469 16.0340625 143.50460937 16.953125 143.66796875 C17.62859375 143.77753906 18.3040625 143.88710938 19 144 C18.67 144.66 18.34 145.32 18 146 C11.97930006 145.73241334 7.69294156 145.13425804 3 141 C-1.11936113 135.16384621 -0.40006979 128.77028549 -0.34057617 121.92626953 C-0.34101425 120.60866135 -0.34145233 119.29105316 -0.34190369 117.93351746 C-0.34276228 114.33262413 -0.3251588 110.73203233 -0.30418181 107.1312089 C-0.28539223 103.36360114 -0.28366278 99.59598601 -0.28010559 95.82833862 C-0.2707918 88.69923776 -0.24618712 81.57027538 -0.21605712 74.44123542 C-0.1824923 66.32276971 -0.16602188 58.20429729 -0.15097082 50.08577943 C-0.11963691 33.39043864 -0.06688947 16.69523701 0 0 Z " fill="#02152E" transform="translate(497,439)"/>
<path d="M0 0 C0.66 0.33 1.32 0.66 2 1 C2.11582665 10.83995972 2.20468106 20.6797574 2.25906086 30.52025986 C2.28516006 35.08959778 2.3205635 39.65846948 2.37719727 44.22753906 C2.43150631 48.6366255 2.4614181 53.04526342 2.47438622 57.45465851 C2.48362818 59.13724073 2.50167589 60.81979827 2.52865028 62.50218964 C2.56492803 64.85844546 2.56994621 67.21284598 2.56762695 69.56933594 C2.58560333 70.26561096 2.60357971 70.96188599 2.62210083 71.67926025 C2.60127258 73.63372803 2.60127258 73.63372803 2 77 C-0.53547668 79.4644165 -0.53547668 79.4644165 -3 81 C-2.125 77.125 -2.125 77.125 -1 76 C-0.87513046 73.62798453 -0.81399948 71.28359657 -0.79467773 68.90991211 C-0.78477814 68.16849472 -0.77487854 67.42707733 -0.76467896 66.66319275 C-0.73297534 64.20127607 -0.70827174 61.73934007 -0.68359375 59.27734375 C-0.66303186 57.57482895 -0.6420356 55.87231935 -0.62062073 54.16981506 C-0.56532101 49.68012691 -0.51594672 45.19039208 -0.46777344 40.70062256 C-0.41761594 36.12263822 -0.36189992 31.54472197 -0.30664062 26.96679688 C-0.19896249 17.9779227 -0.09753912 8.9889895 0 0 Z " fill="#102541" transform="translate(503,610)"/>
<path d="M0 0 C0.95520271 2.57904733 1.15286665 3.64542514 0.04336548 6.21891785 C-1.20960488 9.5587001 -1.27915991 12.24453153 -1.31884766 15.80981445 C-1.32889328 16.47378738 -1.3389389 17.13776031 -1.34928894 17.82185364 C-1.3800195 20.00232123 -1.3971274 22.18266661 -1.4140625 24.36328125 C-1.43278235 25.88072249 -1.45235637 27.39815342 -1.4727478 28.91557312 C-1.52398891 32.89883327 -1.56365736 36.88212713 -1.60089111 40.86553955 C-1.64098121 44.93453254 -1.69205067 49.00338623 -1.7421875 53.07226562 C-1.83885174 61.04808179 -1.92328671 69.02396711 -2 77 C-2.66 76.67 -3.32 76.34 -4 76 C-4.06971046 67.40248188 -4.12291754 58.80508315 -4.15543652 50.20735168 C-4.17104913 46.21446706 -4.1922061 42.22177674 -4.22631836 38.22900391 C-4.25907005 34.37105415 -4.27688609 30.51329053 -4.28463173 26.6552124 C-4.29014702 25.18810092 -4.30091673 23.72099888 -4.31719017 22.25396729 C-4.3981744 14.6462814 -4.46061499 7.94202103 -1 1 C-0.67 0.67 -0.34 0.34 0 0 Z " fill="#031835" transform="translate(523,603)"/>
<path d="M0 0 C7.24552255 0.83649496 15.87999592 3.70344406 21 9 C21 9.66 21 10.32 21 11 C12.80966773 10.58994384 4.95956551 10.0946225 -3 8 C-2.67 7.34 -2.34 6.68 -2 6 C-2.66 5.34 -3.32 4.68 -4 4 C-2.3125 1.9375 -2.3125 1.9375 0 0 Z " fill="#B3D5F0" transform="translate(467,598)"/>
<path d="M0 0 C2.50696229 0.95091673 3.94401245 1.93801378 5.75 3.9375 C7.65892997 8.61437842 7.65166311 13.02100097 7 18 C4.69255468 22.88113432 1.79661805 25.55643986 -3 28 C-7.63134672 29.23389894 -11.12358266 29.24831825 -15.75 27.9375 C-20.01805801 25.3930808 -22.74740764 22.50518472 -25 18 C-25.09608608 16.16871229 -25.12982579 14.33380041 -25.125 12.5 C-25.12757813 11.5203125 -25.13015625 10.540625 -25.1328125 9.53125 C-25 7 -25 7 -24 5 C-23.34 5 -22.68 5 -22 5 C-22.03480469 5.71285156 -22.06960938 6.42570313 -22.10546875 7.16015625 C-22.27738508 13.24271975 -22.2675516 17.77191745 -19 23 C-14.70248943 26.02779154 -11.18413528 26.6256715 -6 26 C-2.35642811 24.71053263 1.00192231 23.48904148 3.20703125 20.19921875 C4.74833367 15.92457215 4.56970941 11.46493185 4 7 C2.18409021 3.97309557 2.18409021 3.97309557 0 2 C0 1.34 0 0.68 0 0 Z " fill="#0B1D38" transform="translate(521,687)"/>
<path d="M0 0 C0.33 0.66 0.66 1.32 1 2 C-3.59356214 3.53118738 -8.34433938 3.82929356 -13.140625 4.40234375 C-16.93418805 4.98980847 -20.34273952 5.86776522 -24 7 C-24 6.34 -24 5.68 -24 5 C-23.34 5 -22.68 5 -22 5 C-22 3.68 -22 2.36 -22 1 C-22.66 0.67 -23.32 0.34 -24 0 C-16.86716487 -2.37761171 -7.32988796 -1.70462511 0 0 Z " fill="#5087C2" transform="translate(467,488)"/>
<path d="M0 0 C2.29633824 3.44450737 2.54016485 5.93812283 3 10 C1.02 10.99 1.02 10.99 -1 12 C-0.34 14.97 0.32 17.94 1 21 C0.34 21.33 -0.32 21.66 -1 22 C-1.50512244 20.39743892 -2.00391627 18.79288208 -2.5 17.1875 C-2.7784375 16.29417969 -3.056875 15.40085937 -3.34375 14.48046875 C-4 12 -4 12 -4 9 C-4.66 8.67 -5.32 8.34 -6 8 C-5.34 8 -4.68 8 -4 8 C-4.495 6.824375 -4.495 6.824375 -5 5.625 C-6 3 -6 3 -6 1 C-4.02 0.67 -2.04 0.34 0 0 Z " fill="#BDDAF2" transform="translate(334,527)"/>
<path d="M0 0 C0 0.66 0 1.32 0 2 C-0.99 2 -1.98 2 -3 2 C-3 2.66 -3 3.32 -3 4 C-5.77034137 4.24858198 -8.53939069 4.47452879 -11.3125 4.6875 C-12.49102539 4.79674805 -12.49102539 4.79674805 -13.69335938 4.90820312 C-14.45068359 4.96298828 -15.20800781 5.01777344 -15.98828125 5.07421875 C-16.68477783 5.13182373 -17.38127441 5.18942871 -18.09887695 5.2487793 C-20.60942091 4.92025171 -21.44505737 3.93904415 -23 2 C-23 1.67 -23 1.34 -23 1 C-15.34916042 -0.24911667 -7.72559014 -0.09053426 0 0 Z " fill="#3B76B6" transform="translate(579,487)"/>
<path d="M0 0 C0.33 0 0.66 0 1 0 C1.39852399 15.76383764 1.39852399 15.76383764 -1 22 C-3.125 23.5 -3.125 23.5 -5 24 C-5.93619813 20.84493858 -6.1057123 18.03413498 -6.0625 14.75 C-6.05347656 13.85796875 -6.04445313 12.9659375 -6.03515625 12.046875 C-6.02355469 11.37140625 -6.01195312 10.6959375 -6 10 C-5.67 10 -5.34 10 -5 10 C-4.67 11.65 -4.34 13.3 -4 15 C-3.67 12.36 -3.34 9.72 -3 7 C-2.34 7 -1.68 7 -1 7 C-0.67 4.69 -0.34 2.38 0 0 Z " fill="#A4C8E8" transform="translate(627,449)"/>
<path d="M0 0 C0.66 0 1.32 0 2 0 C2 0.66 2 1.32 2 2 C2.66 2 3.32 2 4 2 C4 6.62 4 11.24 4 16 C2.68 15.67 1.36 15.34 0 15 C-1.78387338 9.85824731 -2.200503 6.45683182 -1 1 C-0.67 0.67 -0.34 0.34 0 0 Z " fill="#B7DBF8" transform="translate(431,464)"/>
<path d="M0 0 C0.66 0.33 1.32 0.66 2 1 C1.45118943 7.35219042 0.83488387 13.67873638 0 20 C-1.9375 19.3125 -1.9375 19.3125 -4 18 C-5.51899003 13.91041146 -4.74406776 10.21638397 -4 6 C-2 7 -2 7 -1 8 C-1.020625 7.05125 -1.04125 6.1025 -1.0625 5.125 C-1 2 -1 2 0 0 Z " fill="#B7D9F3" transform="translate(676,508)"/>
<path d="M0 0 C0.33 0 0.66 0 1 0 C1.48220263 1.87422152 1.96061833 3.74941754 2.4375 5.625 C2.70433594 6.66914063 2.97117187 7.71328125 3.24609375 8.7890625 C3.96452539 11.84891124 4.51976716 14.8948051 5 18 C4.34 18.33 3.68 18.66 3 19 C3 18.34 3 17.68 3 17 C2.34 17 1.68 17 1 17 C1 18.98 1 20.96 1 23 C0.67 23 0.34 23 0 23 C-0.39074108 20.10551028 -0.76301611 17.21060558 -1.125 14.3125 C-1.23714844 13.49587891 -1.34929687 12.67925781 -1.46484375 11.83789062 C-2.01357751 7.31998265 -2.27607806 4.1390901 0 0 Z " fill="#B0D2ED" transform="translate(347,504)"/>
<path d="M0 0 C1 5 2 10 3 15 C2.01 14.01 1.02 13.02 0 12 C-0.99 12.33 -1.98 12.66 -3 13 C-3 10.69 -3 8.38 -3 6 C-3.66 6 -4.32 6 -5 6 C-5 8.31 -5 10.62 -5 13 C-5.33 13 -5.66 13 -6 13 C-6.61393152 5.75560803 -6.61393152 5.75560803 -3.5625 2 C-1 0 -1 0 0 0 Z " fill="#B3D6F2" transform="translate(381,502)"/>
<path d="M0 0 C2 1 2 1 4 3 C4.36933645 5.75372909 4.18336678 8.20365661 4 11 C3.34 11 2.68 11 2 11 C1.67 11.66 1.34 12.32 1 13 C0.67 12.01 0.34 11.02 0 10 C-0.99 10.33 -1.98 10.66 -3 11 C-2.25 3.375 -2.25 3.375 0 0 Z " fill="#ABCFEE" transform="translate(611,501)"/>
<path d="M0 0 C2.41602297 2.32309901 4.62116373 4.72997732 6.75 7.3125 C9.62199695 10.74273677 12.84324434 13.47758129 16.36328125 16.2265625 C18.38425064 18.41634795 18.65649979 20.08273733 19 23 C18.44183594 22.25492188 17.88367188 21.50984375 17.30859375 20.7421875 C15.0589987 18.07007968 12.85661231 16.20013426 10.0625 14.125 C5.75456604 10.75883004 2.77188565 7.7122056 0 3 C0 2.01 0 1.02 0 0 Z " fill="#0D1D34" transform="translate(483,586)"/>
<path d="M0 0 C1.32 0.66 2.64 1.32 4 2 C3.67 4.64 3.34 7.28 3 10 C-0.96 9.67 -4.92 9.34 -9 9 C-9 8.67 -9 8.34 -9 8 C-7.6078125 7.9690625 -7.6078125 7.9690625 -6.1875 7.9375 C-2.99303786 7.37155641 -2.99303786 7.37155641 -1.93359375 5.375 C-1.20025229 3.61781467 -0.59224075 1.80962451 0 0 Z " fill="#A3C3DD" transform="translate(497,643)"/>
<path d="M0 0 C0.66 0.99 1.32 1.98 2 3 C1.01 4.32 0.02 5.64 -1 7 C-0.01 7.33 0.98 7.66 2 8 C-3.41538462 11.07692308 -3.41538462 11.07692308 -6.375 10.6875 C-6.91125 10.460625 -7.4475 10.23375 -8 10 C-6.5682479 4.98886765 -4.01554307 3.05530451 0 0 Z " fill="#A5C9E5" transform="translate(561,528)"/>
<path d="M0 0 C4.26544717 1.25021727 5.39421802 2.49525089 7.69140625 6.140625 C8.95413282 8.74004539 9.41508874 11.19371275 9.625 14.0625 C7.84004013 11.74205217 6.26013949 9.45439916 4.75 6.9375 C2.49592993 3.88787579 1.21273738 3.05909372 -2.375 2.0625 C-2.705 3.0525 -3.035 4.0425 -3.375 5.0625 C-5.4375 5.75 -5.4375 5.75 -7.375 6.0625 C-7.0625 4.1875 -7.0625 4.1875 -6.375 2.0625 C-3.375 0.0625 -3.375 0.0625 0 0 Z " fill="#467EBB" transform="translate(609.375,474.9375)"/>
<path d="M0 0 C2.64 0 5.28 0 8 0 C7.01 0.495 7.01 0.495 6 1 C6 1.66 6 2.32 6 3 C11.28 3 16.56 3 22 3 C22 3.33 22 3.66 22 4 C14.24272966 5.11032496 7.62854246 4.78540355 0 3 C0 2.01 0 1.02 0 0 Z " fill="#477DB5" transform="translate(188,487)"/>
<path d="M0 0 C0.99 1.485 0.99 1.485 2 3 C2.99 3.33 3.98 3.66 5 4 C5.66 2.68 6.32 1.36 7 0 C7 3.63 7 7.26 7 11 C5.35 11 3.7 11 2 11 C0.57741188 7.17679443 -0.24042276 4.08718695 0 0 Z " fill="#9BBEDF" transform="translate(430,476)"/>
<path d="M0 0 C0.33 0 0.66 0 1 0 C1.33 1.98 1.66 3.96 2 6 C2.99 5.01 3.98 4.02 5 3 C5.99 3.33 6.98 3.66 8 4 C8 4.66 8 5.32 8 6 C7.34 6 6.68 6 6 6 C5.67 7.65 5.34 9.3 5 11 C4.34 11 3.68 11 3 11 C2.34 11.66 1.68 12.32 1 13 C-0.00496852 9.98509443 -0.10335303 7.95818308 -0.0625 4.8125 C-0.05347656 3.91144531 -0.04445313 3.01039063 -0.03515625 2.08203125 C-0.02355469 1.39496094 -0.01195312 0.70789063 0 0 Z " fill="#89AFD5" transform="translate(695,444)"/>
<path d="M0 0 C0.66 0.66 1.32 1.32 2 2 C1.67 2.33 1.34 2.66 1 3 C4.3 3.66 7.6 4.32 11 5 C11 5.33 11 5.66 11 6 C6.05 6.33 1.1 6.66 -4 7 C-3.67 5.02 -3.34 3.04 -3 1 C-2.01 0.67 -1.02 0.34 0 0 Z " fill="#8BADC9" transform="translate(540,602)"/>
<path d="M0 0 C-0.75 1.9375 -0.75 1.9375 -2 4 C-6.36100312 5.6541736 -9.66144358 4.22925765 -14 3 C-12.68 2.67 -11.36 2.34 -10 2 C-10 1.34 -10 0.68 -10 0 C-6.30581799 -1.231394 -3.7943739 -0.64432764 0 0 Z " fill="#4885C5" transform="translate(586,489)"/>
<path d="M0 0 C0.33 0 0.66 0 1 0 C1.12381526 4.3415346 1.21443558 8.68212837 1.2746582 13.02490234 C1.29976737 14.50132146 1.33386255 15.97761668 1.37719727 17.45361328 C1.438018 19.5787614 1.46624209 21.70226394 1.48828125 23.828125 C1.51446533 25.1059082 1.54064941 26.38369141 1.56762695 27.70019531 C1 31 1 31 -1.53051758 33.44824219 C-2.34544678 33.96032227 -3.16037598 34.47240234 -4 35 C-3.6875 33.0625 -3.6875 33.0625 -3 31 C-2.01 30.67 -1.02 30.34 0 30 C0 20.1 0 10.2 0 0 Z " fill="#031330" transform="translate(504,656)"/>
<path d="M0 0 C0.38929688 0.40992188 0.77859375 0.81984375 1.1796875 1.2421875 C6.04719273 5.93024553 10.35659009 7.22471273 17 8 C16.67 8.66 16.34 9.32 16 10 C10.01654066 9.73406847 5.63439907 9.17095916 1 5 C0.125 2.25 0.125 2.25 0 0 Z " fill="#071A37" transform="translate(499,575)"/>
<path d="M0 0 C5.28 0 10.56 0 16 0 C16.33 0.66 16.66 1.32 17 2 C13.79037044 3.06987652 11.31100738 3.20081156 7.9375 3.25 C6.34228516 3.28867187 6.34228516 3.28867187 4.71484375 3.328125 C3.81894531 3.21984375 2.92304688 3.1115625 2 3 C1.34 2.01 0.68 1.02 0 0 Z " fill="#3E73AD" transform="translate(451,488)"/>
<path d="M0 0 C4.6875 3.515625 4.6875 3.515625 6 5 C6 6.32 6 7.64 6 9 C3.69 8.67 1.38 8.34 -1 8 C-1 5.16032769 -0.59732819 2.76264289 0 0 Z " fill="#AFD1ED" transform="translate(466,530)"/>
<path d="M0 0 C5.81743303 0.82194184 11.62770911 1.6883126 17.4375 2.5625 C18.35982422 2.70107422 19.28214844 2.83964844 20.23242188 2.98242188 C22.48831506 3.32139028 24.74417347 3.66058831 27 4 C27 4.99 27 5.98 27 7 C26.01 7 25.02 7 24 7 C24 6.34 24 5.68 24 5 C23.18917969 4.96261719 22.37835937 4.92523438 21.54296875 4.88671875 C14.00796443 4.43935528 7.19131457 3.29142088 0 1 C0 0.67 0 0.34 0 0 Z " fill="#4476AA" transform="translate(808,483)"/>
<path d="M0 0 C0.33 0.99 0.66 1.98 1 3 C-1.76536017 8.24019612 -5.75214269 12.31776182 -11 15 C-11.99 14.67 -12.98 14.34 -14 14 C-13.40832031 13.57589844 -12.81664062 13.15179687 -12.20703125 12.71484375 C-7.08166998 8.91053808 -3.41398103 5.39629259 0 0 Z " fill="#0E1D35" transform="translate(539,587)"/>
<path d="M0 0 C2 3.75 2 3.75 2 6 C2.99 6 3.98 6 5 6 C4.67 8.64 4.34 11.28 4 14 C3.34 14 2.68 14 2 14 C-0.3992233 9.35150485 -0.19957409 5.08913926 0 0 Z " fill="#8BB1D7" transform="translate(324,444)"/>
<path d="M0 0 C0.66 0.99 1.32 1.98 2 3 C1.67 3.99 1.34 4.98 1 6 C0.34 5.34 -0.32 4.68 -1 4 C-2.96822886 5.96822886 -2.66248381 9.34808709 -3 12 C-3.33 11.01 -3.66 10.02 -4 9 C-4.66 8.67 -5.32 8.34 -6 8 C-5.34 8 -4.68 8 -4 8 C-4.495 6.824375 -4.495 6.824375 -5 5.625 C-6 3 -6 3 -6 1 C-4.02 0.67 -2.04 0.34 0 0 Z " fill="#A0C0E0" transform="translate(334,527)"/>
<path d="M0 0 C1.32 0.99 2.64 1.98 4 3 C4.33 3 4.66 3 5 3 C5 5.31 5 7.62 5 10 C4.67 10 4.34 10 4 10 C4 8.35 4 6.7 4 5 C3.34 5 2.68 5 2 5 C1.731875 5.639375 1.46375 6.27875 1.1875 6.9375 C0 9 0 9 -3 10 C-2.01 6.7 -1.02 3.4 0 0 Z " fill="#BADAF4" transform="translate(670,523)"/>
<path d="M0 0 C0.33 0 0.66 0 1 0 C0.67 5.94 0.34 11.88 0 18 C-0.66 18 -1.32 18 -2 18 C-2 17.34 -2 16.68 -2 16 C-2.66 16 -3.32 16 -4 16 C-4 14.35 -4 12.7 -4 11 C-3.34 11 -2.68 11 -2 11 C-1.34 7.37 -0.68 3.74 0 0 Z " fill="#C0E1FB" transform="translate(401,453)"/>
<path d="M0 0 C3.36016893 1.12005631 4.69064913 2.37211797 7 5 C7 5.66 7 6.32 7 7 C7.66 7.33 8.32 7.66 9 8 C3.37082652 7.59791618 0.99613521 5.71069698 -3 2 C-2.01 1.34 -1.02 0.68 0 0 Z " fill="#BDD4E8" transform="translate(388,615)"/>
<path d="M0 0 C0.66 0.33 1.32 0.66 2 1 C1.45118943 7.35219042 0.83488387 13.67873638 0 20 C-0.33 20 -0.66 20 -1 20 C-1.02689449 17.04160645 -1.04678741 14.08345573 -1.0625 11.125 C-1.07087891 10.28324219 -1.07925781 9.44148437 -1.08789062 8.57421875 C-1.09111328 7.76855469 -1.09433594 6.96289062 -1.09765625 6.1328125 C-1.10289307 5.38918457 -1.10812988 4.64555664 -1.11352539 3.87939453 C-1 2 -1 2 0 0 Z " fill="#95BADF" transform="translate(676,508)"/>
<path d="M0 0 C2.97 0.495 2.97 0.495 6 1 C5.835 1.495 5.67 1.99 5.5 2.5 C5.03038294 4.84808532 4.9976212 6.74611065 5.0625 9.125 C5 13 5 13 3 15 C3.02320313 14.38511719 3.04640625 13.77023437 3.0703125 13.13671875 C3.08835937 12.32847656 3.10640625 11.52023437 3.125 10.6875 C3.14820313 9.88699219 3.17140625 9.08648438 3.1953125 8.26171875 C3.15817322 5.71611424 3.15817322 5.71611424 1 3 C0.01 3.495 0.01 3.495 -1 4 C-0.67 2.68 -0.34 1.36 0 0 Z " fill="#95BBDF" transform="translate(644,503)"/>
<path d="M0 0 C2.03833424 1.2739589 4.03852126 2.61061923 6 4 C6 4.66 6 5.32 6 6 C1.05 5.67 -3.9 5.34 -9 5 C-9 4.67 -9 4.34 -9 4 C-6.36 3.67 -3.72 3.34 -1 3 C-0.67 2.01 -0.34 1.02 0 0 Z " fill="#8BADCA" transform="translate(482,603)"/>
<path d="M0 0 C0.66 0.33 1.32 0.66 2 1 C1.63030147 3.65614176 1.29524408 4.74758254 -0.77734375 6.51953125 C-1.49019531 6.94621094 -2.20304688 7.37289062 -2.9375 7.8125 C-3.64777344 8.25207031 -4.35804688 8.69164062 -5.08984375 9.14453125 C-6.03537109 9.56798828 -6.03537109 9.56798828 -7 10 C-7.66 9.67 -8.32 9.34 -9 9 C-8.51789062 8.60167969 -8.03578125 8.20335937 -7.5390625 7.79296875 C-6.90742187 7.26316406 -6.27578125 6.73335937 -5.625 6.1875 C-4.99851562 5.66542969 -4.37203125 5.14335938 -3.7265625 4.60546875 C-1.7778952 2.91774261 -1.7778952 2.91774261 0 0 Z " fill="#C3DBEC" transform="translate(637,612)"/>
<path d="M0 0 C0.66 0 1.32 0 2 0 C2 4.29 2 8.58 2 13 C1.34 13 0.68 13 0 13 C-0.83796731 8.34462607 -1.0161692 4.62921525 0 0 Z " fill="#0A1F3E" transform="translate(479,560)"/>
<path d="M0 0 C0.1875 2.875 0.1875 2.875 0 6 C-0.99 6.66 -1.98 7.32 -3 8 C-3 7.34 -3 6.68 -3 6 C-3.66 6 -4.32 6 -5 6 C-5 8.31 -5 10.62 -5 13 C-5.33 13 -5.66 13 -6 13 C-6.61393152 5.75560803 -6.61393152 5.75560803 -3.5625 2 C-1 0 -1 0 0 0 Z " fill="#98BEE2" transform="translate(381,502)"/>
<path d="M0 0 C0.33 0 0.66 0 1 0 C0.67 7.59 0.34 15.18 0 23 C-0.33 23 -0.66 23 -1 23 C-1.22655901 19.91772291 -1.42803465 16.8342984 -1.625 13.75 C-1.68945312 12.87730469 -1.75390625 12.00460937 -1.8203125 11.10546875 C-1.871875 10.26113281 -1.9234375 9.41679687 -1.9765625 8.546875 C-2.02893066 7.77182617 -2.08129883 6.99677734 -2.13525391 6.19824219 C-1.9810467 3.69195763 -1.25581508 2.15160127 0 0 Z " fill="#A8CCEB" transform="translate(436,460)"/>
<path d="M0 0 C2.96968084 4.45452125 2.34903947 8.90576317 1.5 14 C1.335 14.66 1.17 15.32 1 16 C0.67 16 0.34 16 0 16 C-0.19389096 13.5211787 -0.38040123 11.04219069 -0.5625 8.5625 C-0.61857422 7.85544922 -0.67464844 7.14839844 -0.73242188 6.41992188 C-0.86190993 4.61572163 -0.93521608 2.80768048 -1 1 C-0.67 0.67 -0.34 0.34 0 0 Z " fill="#05132A" transform="translate(526,557)"/>
<path d="M0 0 C-0.33 0.66 -0.66 1.32 -1 2 C-5.28769786 3.29930238 -9.56510345 3.07516774 -14 3 C-9.5718927 0.52025991 -4.9510693 -1.65035643 0 0 Z " fill="#BDDBF0" transform="translate(561,636)"/>
<path d="M0 0 C2.00720923 0.28674418 4.0085944 0.61866701 6 1 C5.34 2.32 4.68 3.64 4 5 C2.35 4.67 0.7 4.34 -1 4 C-1.33 4.99 -1.66 5.98 -2 7 C-1.125 1.125 -1.125 1.125 0 0 Z " fill="#92B7DB" transform="translate(408,501)"/>
<path d="M0 0 C2.31 0 4.62 0 7 0 C7 0.33 7 0.66 7 1 C9.31 1.33 11.62 1.66 14 2 C14 2.33 14 2.66 14 3 C12.23186888 3.24915939 10.46025018 3.47366632 8.6875 3.6875 C7.70136719 3.81511719 6.71523438 3.94273437 5.69921875 4.07421875 C3 4 3 4 1.14453125 2.58203125 C0 1 0 1 0 0 Z " fill="#537CA8" transform="translate(556,488)"/>
<path d="M0 0 C1.953125 0.13020833 3.90625 0.26041667 5.859375 0.390625 C5.859375 1.050625 5.859375 1.710625 5.859375 2.390625 C1.899375 3.050625 -2.060625 3.710625 -6.140625 4.390625 C-2.140625 0.390625 -2.140625 0.390625 0 0 Z " fill="#182C4A" transform="translate(533.140625,418.609375)"/>
<path d="M0 0 C0.99 0.66 1.98 1.32 3 2 C2.67 4.64 2.34 7.28 2 10 C0.68 9.67 -0.64 9.34 -2 9 C-1.34 9 -0.68 9 0 9 C0 6.03 0 3.06 0 0 Z " fill="#7192B1" transform="translate(498,643)"/>
<path d="M0 0 C2.64 0 5.28 0 8 0 C7.67 0.66 7.34 1.32 7 2 C6.01 2 5.02 2 4 2 C3.67 2.66 3.34 3.32 3 4 C0.69 3.67 -1.62 3.34 -4 3 C-2.68 2.67 -1.36 2.34 0 2 C0 1.34 0 0.68 0 0 Z " fill="#6499D2" transform="translate(432,496)"/>
<path d="M0 0 C0.33 0.66 0.66 1.32 1 2 C1.66 2 2.32 2 3 2 C3 2.66 3 3.32 3 4 C3.66 4 4.32 4 5 4 C5.33 3.34 5.66 2.68 6 2 C5.49396008 4.16874252 5.00016187 5.99967627 4 8 C3.01 7.67 2.02 7.34 1 7 C0.67 4.69 0.34 2.38 0 0 Z " fill="#91B6DA" transform="translate(396,467)"/>
<path d="M0 0 C0.33 0 0.66 0 1 0 C1.09038099 5.15171623 0.84681133 9.91913204 0 15 C-0.33 15 -0.66 15 -1 15 C-1.22211116 13.06403108 -1.42722992 11.12610672 -1.625 9.1875 C-1.74101563 8.10855469 -1.85703125 7.02960938 -1.9765625 5.91796875 C-2 3 -2 3 0 0 Z " fill="#A2C7E6" transform="translate(594,463)"/>
<path d="M0 0 C-0.33 3.3 -0.66 6.6 -1 10 C-2.99097846 7.01353231 -3.94124926 4.40312738 -5 1 C-3 0 -3 0 0 0 Z " fill="#93BADF" transform="translate(364,458)"/>
<path d="M0 0 C0.66 0 1.32 0 2 0 C3.125 2.3125 3.125 2.3125 4 5 C3.01 6.485 3.01 6.485 2 8 C1.67 7.34 1.34 6.68 1 6 C0.01 6.495 0.01 6.495 -1 7 C-0.67 4.69 -0.34 2.38 0 0 Z " fill="#B3D3EF" transform="translate(688,528)"/>
<path d="M0 0 C0.33 0 0.66 0 1 0 C1 1.98 1 3.96 1 6 C3.97 6.33 6.94 6.66 10 7 C10 7.33 10 7.66 10 8 C5.545 8.495 5.545 8.495 1 9 C-1.125 3.375 -1.125 3.375 0 0 Z " fill="#8CACC6" transform="translate(525,644)"/>
<path d="M0 0 C0.66 0.33 1.32 0.66 2 1 C1.38080922 2.46080933 0.75443308 3.91857455 0.125 5.375 C-0.22304688 6.18710937 -0.57109375 6.99921875 -0.9296875 7.8359375 C-2 10 -2 10 -4 12 C-3.45660208 7.43545749 -2.20536179 4.0271824 0 0 Z " fill="#457EBC" transform="translate(407,481)"/>
<path d="M0 0 C0.33 0 0.66 0 1 0 C1 3.96 1 7.92 1 12 C0.01 12 -0.98 12 -2 12 C-1.85962479 10.18706911 -1.71255111 8.3746557 -1.5625 6.5625 C-1.48128906 5.55316406 -1.40007813 4.54382813 -1.31640625 3.50390625 C-1 1 -1 1 0 0 Z " fill="#A8CDED" transform="translate(591,472)"/>
<path d="M0 0 C0.99 0 1.98 0 3 0 C2.34 2.64 1.68 5.28 1 8 C0.34 8 -0.32 8 -1 8 C-1.04241723 5.66705225 -1.04092937 3.33297433 -1 1 C-0.67 0.67 -0.34 0.34 0 0 Z " fill="#97BDE0" transform="translate(661,459)"/>
<path d="M0 0 C0.99 0.495 0.99 0.495 2 1 C2 1.66 2 2.32 2 3 C2.99 3.33 3.98 3.66 5 4 C5 5.32 5 6.64 5 8 C4.01 8 3.02 8 2 8 C1.34 5.36 0.68 2.72 0 0 Z " fill="#B7D9F4" transform="translate(324,442)"/>
<path d="M0 0 C2.0625 0.4375 2.0625 0.4375 4 1 C4 1.66 4 2.32 4 3 C3.01 3.66 2.02 4.32 1 5 C0.34 5.99 -0.32 6.98 -1 8 C-1.04241723 5.66705225 -1.04092937 3.33297433 -1 1 C-0.67 0.67 -0.34 0.34 0 0 Z " fill="#A7C8DF" transform="translate(527,642)"/>
<path d="M0 0 C0.6875 1.625 0.6875 1.625 1 4 C-0.4375 7.25 -0.4375 7.25 -2 10 C-2.33 10 -2.66 10 -3 10 C-2.25 3.375 -2.25 3.375 0 0 Z " fill="#0C1E38" transform="translate(523,603)"/>
<path d="M0 0 C0.33 0.99 0.66 1.98 1 3 C-0.9375 5.6875 -0.9375 5.6875 -3 8 C-3.99 7.67 -4.98 7.34 -6 7 C-4.02 4.69 -2.04 2.38 0 0 Z " fill="#05152D" transform="translate(525,574)"/>
<path d="M0 0 C-6.2 4.13333333 -6.2 4.13333333 -9.25 3.625 C-9.8275 3.41875 -10.405 3.2125 -11 3 C-7.14243493 0.84694043 -4.44870215 -0.39253254 0 0 Z " fill="#AACDE9" transform="translate(568,566)"/>
<path d="M0 0 C1.32 0.33 2.64 0.66 4 1 C3.67 2.98 3.34 4.96 3 7 C2.34 7 1.68 7 1 7 C0.67 4.69 0.34 2.38 0 0 Z " fill="#B9D9F4" transform="translate(349,521)"/>
<path d="M0 0 C0.33 0 0.66 0 1 0 C1.19622241 4.21878192 0.80230168 7.17010894 -1 11 C-1.33 11 -1.66 11 -2 11 C-2.28571429 3.57142857 -2.28571429 3.57142857 0 0 Z " fill="#3E7ABC" transform="translate(708,442)"/>
<path d="M0 0 C0.99 0.99 1.98 1.98 3 3 C2.67 3.66 2.34 4.32 2 5 C2.66 5.33 3.32 5.66 4 6 C3.01 6.33 2.02 6.66 1 7 C0.01 6.34 -0.98 5.68 -2 5 C-1.34 5 -0.68 5 0 5 C0 3.35 0 1.7 0 0 Z " fill="#81A2C2" transform="translate(468,565)"/>
<path d="M0 0 C0.99 0.495 0.99 0.495 2 1 C2.40729228 3.32156597 2.74438677 5.6568787 3 8 C2.01 7.67 1.02 7.34 0 7 C0 4.69 0 2.38 0 0 Z " fill="#B1D4F1" transform="translate(694,436)"/>
<path d="M0 0 C2.875 0.625 2.875 0.625 6 2 C7.375 5.125 7.375 5.125 8 8 C6.2925002 6.71937515 4.62626404 5.38232443 3 4 C3 3.34 3 2.68 3 2 C2.01 1.67 1.02 1.34 0 1 C0 0.67 0 0.34 0 0 Z " fill="#A7CBE9" transform="translate(562,415)"/>
<path d="M0 0 C0.66 0.33 1.32 0.66 2 1 C2 2.32 2 3.64 2 5 C-0.31 4.67 -2.62 4.34 -5 4 C-4.360625 3.71125 -3.72125 3.4225 -3.0625 3.125 C-0.84793921 2.17176549 -0.84793921 2.17176549 0 0 Z " fill="#83A5C5" transform="translate(470,534)"/>
<path d="M0 0 C0.33 0 0.66 0 1 0 C1.33 3.3 1.66 6.6 2 10 C1.67 9.34 1.34 8.68 1 8 C0.34 8 -0.32 8 -1 8 C-2.2077558 4.37673261 -1.54311128 3.35853631 0 0 Z " fill="#81A8D3" transform="translate(347,504)"/>
<path d="M0 0 C1.9375 0.5625 1.9375 0.5625 4 2 C4.75 5.625 4.75 5.625 5 9 C0.57142857 3.85714286 0.57142857 3.85714286 0 0 Z " fill="#C0DDF3" transform="translate(672,374)"/>
<path d="M0 0 C1 4 1 4 1 4 Z " fill="#578DC7" transform="translate(277,476)"/>
<path d="M0 0 C0.99 0.495 0.99 0.495 2 1 C1.01 1.495 1.01 1.495 0 2 C0 1.34 0 0.68 0 0 Z " fill="#7EA5CE" transform="translate(589,486)"/>
<path d="M0 0 C2 1 2 1 2 1 Z " fill="#A3C2DB" transform="translate(556,607)"/>
<path d="M0 0 C2 1 2 1 2 1 Z " fill="#345478" transform="translate(497,605)"/>
<path d="M0 0 C2 1 2 1 2 1 Z " fill="#6B8DAD" transform="translate(541,601)"/>
<path d="" fill="#83ABD7" transform="translate(0,0)"/>
<path d="M0 0 C2 1 2 1 2 1 Z " fill="#80A9D5" transform="translate(350,511)"/>
<path d="" fill="#5A8DC6" transform="translate(0,0)"/>
<path d="M0 0 C2 1 2 1 2 1 Z " fill="#8CB0D7" transform="translate(435,489)"/>
<path d="M0 0 C2 1 2 1 2 1 Z " fill="#5C8DC3" transform="translate(789,487)"/>
<path d="" fill="#6798CB" transform="translate(0,0)"/>
<path d="M0 0 C2 1 2 1 2 1 Z " fill="#7AA9D5" transform="translate(600,477)"/>
<path d="M0 0 C2 1 2 1 2 1 Z " fill="#84AFD9" transform="translate(412,473)"/>
<path d="" fill="#406086" transform="translate(0,0)"/>
<path d="M0 0 C2 1 2 1 2 1 Z " fill="#ADD0EF" transform="translate(498,365)"/>
<path d="M0 0 C2 1 2 1 2 1 Z " fill="#BED6E8" transform="translate(485,272)"/>
<path d="M0 0 C2 1 2 1 2 1 Z " fill="#BFD9EA" transform="translate(482,272)"/>
<path d="" fill="#264467" transform="translate(0,0)"/>
<path d="" fill="#809EB9" transform="translate(0,0)"/>
<path d="" fill="#B7D0E5" transform="translate(0,0)"/>
<path d="" fill="#BDD4E8" transform="translate(0,0)"/>
<path d="" fill="#B5CFE9" transform="translate(0,0)"/>
<path d="" fill="#B6D2E8" transform="translate(0,0)"/>
<path d="" fill="#BED7EA" transform="translate(0,0)"/>
<path d="" fill="#BED7EA" transform="translate(0,0)"/>
<path d="" fill="#395C80" transform="translate(0,0)"/>
<path d="" fill="#395477" transform="translate(0,0)"/>
<path d="" fill="#6A8BA9" transform="translate(0,0)"/>
<path d="" fill="#42668A" transform="translate(0,0)"/>
<path d="" fill="#517294" transform="translate(0,0)"/>
<path d="" fill="#507396" transform="translate(0,0)"/>
<path d="" fill="#CBE3F7" transform="translate(0,0)"/>
<path d="" fill="#527196" transform="translate(0,0)"/>
<path d="" fill="#173359" transform="translate(0,0)"/>
<path d="" fill="#B9D7EF" transform="translate(0,0)"/>
<path d="" fill="#89AACD" transform="translate(0,0)"/>
<path d="" fill="#19355B" transform="translate(0,0)"/>
<path d="" fill="#BFDDF6" transform="translate(0,0)"/>
<path d="" fill="#C2DEF5" transform="translate(0,0)"/>
<path d="" fill="#779DBB" transform="translate(0,0)"/>
<path d="" fill="#7FA1C5" transform="translate(0,0)"/>
<path d="" fill="#93B7D8" transform="translate(0,0)"/>
<path d="" fill="#9CBBDD" transform="translate(0,0)"/>
<path d="" fill="#90B4D7" transform="translate(0,0)"/>
<path d="" fill="#4F7195" transform="translate(0,0)"/>
<path d="" fill="#94B8DE" transform="translate(0,0)"/>
<path d="" fill="#739DCB" transform="translate(0,0)"/>
<path d="" fill="#93B9DD" transform="translate(0,0)"/>
<path d="" fill="#81A9D4" transform="translate(0,0)"/>
<path d="" fill="#6C98C9" transform="translate(0,0)"/>
<path d="" fill="#6A96CB" transform="translate(0,0)"/>
<path d="" fill="#8BB5DB" transform="translate(0,0)"/>
<path d="" fill="#93BADF" transform="translate(0,0)"/>
<path d="" fill="#93B9DF" transform="translate(0,0)"/>
<path d="" fill="#8FB6DC" transform="translate(0,0)"/>
<path d="" fill="#91B7DB" transform="translate(0,0)"/>
<path d="" fill="#8DB8DE" transform="translate(0,0)"/>
<path d="" fill="#8CB2DB" transform="translate(0,0)"/>
<path d="" fill="#84ACD6" transform="translate(0,0)"/>
<path d="" fill="#73A1D6" transform="translate(0,0)"/>
<path d="" fill="#7EA6D2" transform="translate(0,0)"/>
<path d="" fill="#74A0CF" transform="translate(0,0)"/>
<path d="" fill="#87B0DC" transform="translate(0,0)"/>
<path d="" fill="#98BCE1" transform="translate(0,0)"/>
<path d="" fill="#78A1D2" transform="translate(0,0)"/>
<path d="" fill="#85AFDB" transform="translate(0,0)"/>
<path d="" fill="#87AFD9" transform="translate(0,0)"/>
<path d="" fill="#8EB5DC" transform="translate(0,0)"/>
<path d="" fill="#92B9DA" transform="translate(0,0)"/>
<path d="" fill="#81ABD3" transform="translate(0,0)"/>
<path d="" fill="#75A3D4" transform="translate(0,0)"/>
<path d="" fill="#6999CF" transform="translate(0,0)"/>
<path d="" fill="#6294CC" transform="translate(0,0)"/>
<path d="" fill="#7DA8D7" transform="translate(0,0)"/>
<path d="" fill="#5B90C9" transform="translate(0,0)"/>
<path d="" fill="#8DB5DA" transform="translate(0,0)"/>
<path d="" fill="#8AB3D8" transform="translate(0,0)"/>
<path d="" fill="#5E91CC" transform="translate(0,0)"/>
<path d="" fill="#89B1DA" transform="translate(0,0)"/>
<path d="" fill="#8AB1D7" transform="translate(0,0)"/>
<path d="" fill="#86AED3" transform="translate(0,0)"/>
<path d="" fill="#83A8D3" transform="translate(0,0)"/>
<path d="" fill="#6597CD" transform="translate(0,0)"/>
<path d="" fill="#6FA0CF" transform="translate(0,0)"/>
<path d="" fill="#5B83AE" transform="translate(0,0)"/>
<path d="" fill="#6386B1" transform="translate(0,0)"/>
<path d="" fill="#6598CB" transform="translate(0,0)"/>
<path d="" fill="#6B9ACC" transform="translate(0,0)"/>
<path d="" fill="#72A0D1" transform="translate(0,0)"/>
<path d="" fill="#5C92CB" transform="translate(0,0)"/>
<path d="" fill="#6C9ACE" transform="translate(0,0)"/>
<path d="" fill="#84ABD5" transform="translate(0,0)"/>
<path d="" fill="#6092CD" transform="translate(0,0)"/>
<path d="" fill="#588CC1" transform="translate(0,0)"/>
<path d="" fill="#6193CD" transform="translate(0,0)"/>
<path d="" fill="#83A7CF" transform="translate(0,0)"/>
<path d="" fill="#6897CB" transform="translate(0,0)"/>
<path d="" fill="#7CA4D0" transform="translate(0,0)"/>
<path d="" fill="#83ABD1" transform="translate(0,0)"/>
<path d="" fill="#6999CB" transform="translate(0,0)"/>
<path d="" fill="#5A87B5" transform="translate(0,0)"/>
<path d="" fill="#5D91CC" transform="translate(0,0)"/>
<path d="" fill="#5F93CB" transform="translate(0,0)"/>
<path d="" fill="#89B0D5" transform="translate(0,0)"/>
<path d="" fill="#5A8EC5" transform="translate(0,0)"/>
<path d="" fill="#5B90C9" transform="translate(0,0)"/>
<path d="" fill="#5C90C8" transform="translate(0,0)"/>
<path d="" fill="#5F93CA" transform="translate(0,0)"/>
<path d="" fill="#88ABD4" transform="translate(0,0)"/>
<path d="" fill="#5C92CB" transform="translate(0,0)"/>
<path d="" fill="#5E88B8" transform="translate(0,0)"/>
<path d="" fill="#618DBC" transform="translate(0,0)"/>
<path d="" fill="#5E92CA" transform="translate(0,0)"/>
<path d="" fill="#5F93CC" transform="translate(0,0)"/>
<path d="" fill="#6098CF" transform="translate(0,0)"/>
<path d="" fill="#6091C9" transform="translate(0,0)"/>
<path d="" fill="#87AED5" transform="translate(0,0)"/>
<path d="" fill="#79A4D1" transform="translate(0,0)"/>
<path d="" fill="#5A8EC3" transform="translate(0,0)"/>
<path d="" fill="#5E8FC5" transform="translate(0,0)"/>
<path d="" fill="#406185" transform="translate(0,0)"/>
<path d="" fill="#81AAD6" transform="translate(0,0)"/>
<path d="" fill="#97BADE" transform="translate(0,0)"/>
<path d="" fill="#8DB3DA" transform="translate(0,0)"/>
<path d="" fill="#8CB3DB" transform="translate(0,0)"/>
<path d="" fill="#8FB5DA" transform="translate(0,0)"/>
<path d="" fill="#ABCEEB" transform="translate(0,0)"/>
<path d="" fill="#729ECC" transform="translate(0,0)"/>
<path d="" fill="#92B5D9" transform="translate(0,0)"/>
<path d="" fill="#8EB3DA" transform="translate(0,0)"/>
<path d="" fill="#9BBDDD" transform="translate(0,0)"/>
<path d="" fill="#A7C9E9" transform="translate(0,0)"/>
<path d="" fill="#B2D3EC" transform="translate(0,0)"/>
<path d="" fill="#B3D5EF" transform="translate(0,0)"/>
<path d="" fill="#B0D2EE" transform="translate(0,0)"/>
<path d="" fill="#B7D7F1" transform="translate(0,0)"/>
<path d="" fill="#AAC9E6" transform="translate(0,0)"/>
<path d="" fill="#B9D5ED" transform="translate(0,0)"/>
<path d="" fill="#6083A7" transform="translate(0,0)"/>
<path d="" fill="#AFC8DE" transform="translate(0,0)"/>
<path d="" fill="#B8D4ED" transform="translate(0,0)"/>
<path d="" fill="#8EB1D3" transform="translate(0,0)"/>
<path d="" fill="#B5D6F0" transform="translate(0,0)"/>
<path d="" fill="#AACDE9" transform="translate(0,0)"/>
<path d="" fill="#95B9D9" transform="translate(0,0)"/>
<path d="" fill="#93B8DA" transform="translate(0,0)"/>
<path d="" fill="#BFDCF5" transform="translate(0,0)"/>
<path d="" fill="#B4D6EF" transform="translate(0,0)"/>
<path d="" fill="#A5C8E6" transform="translate(0,0)"/>
<path d="" fill="#B4D6F1" transform="translate(0,0)"/>
<path d="" fill="#BBD9EF" transform="translate(0,0)"/>
<path d="" fill="#B0D2ED" transform="translate(0,0)"/>
<path d="" fill="#B2D4F1" transform="translate(0,0)"/>
<path d="" fill="#BCDCF5" transform="translate(0,0)"/>
<path d="" fill="#BCDBF5" transform="translate(0,0)"/>
<path d="" fill="#C1DDF2" transform="translate(0,0)"/>
<path d="" fill="#BBD9F4" transform="translate(0,0)"/>
<path d="" fill="#BADAF4" transform="translate(0,0)"/>
<path d="" fill="#B9DAF3" transform="translate(0,0)"/>
<path d="" fill="#BAD9F3" transform="translate(0,0)"/>
<path d="" fill="#BBDBF5" transform="translate(0,0)"/>
<path d="" fill="#BCDBF3" transform="translate(0,0)"/>
<path d="" fill="#BFDCF3" transform="translate(0,0)"/>
<path d="" fill="#BFDDF2" transform="translate(0,0)"/>
<path d="" fill="#C8E2F3" transform="translate(0,0)"/>
<path d="" fill="#BFDDF3" transform="translate(0,0)"/>
<path d="" fill="#C1DDF3" transform="translate(0,0)"/>
<path d="" fill="#C3DFF4" transform="translate(0,0)"/>
<path d="" fill="#C5DFF5" transform="translate(0,0)"/>
<path d="" fill="#C5DFF4" transform="translate(0,0)"/>
<path d="" fill="#BBD3E6" transform="translate(0,0)"/>
<path d="" fill="#BED6E7" transform="translate(0,0)"/>
</svg>
